<svg width="1764" height="1058" viewBox="0 0 1764 1058" fill="none" xmlns="http://www.w3.org/2000/svg">
<mask id="mask0_5_4230" style="mask-type:alpha" maskUnits="userSpaceOnUse" x="0" y="0" width="1765" height="1058">
<path d="M2.14072 0.970947L0 1.49368V2.34001L5.53848 0.970947H2.14072Z" fill="#FFB901"/>
<path d="M28.7634 6.9328L8.56348 12.2224H11.9239L32.0989 6.9328H28.7634Z" fill="#FFB901"/>
<path d="M4.76683 13.2178L0 14.4748V15.3585L8.12725 13.2178H4.76683Z" fill="#FFB901"/>
<path d="M51.4897 0.98349L32.4971 5.9619H35.8202L54.8003 0.98349H51.4897Z" fill="#FFB901"/>
<path d="M7.69164 26.9331L0 29.0738V30.0072L11.0147 26.9331H7.69164Z" fill="#FFB901"/>
<path d="M79.4555 6.9451L60.4629 12.2347L63.7113 12.2471L82.6915 6.9451H79.4555Z" fill="#FFB901"/>
<path d="M56.8798 13.2301L36.6426 18.8681H39.9283L60.1282 13.2425L56.8798 13.2301Z" fill="#FFB901"/>
<path d="M100.85 0.995789L82.9775 5.96175L86.1886 5.9742L104.049 0.995789H100.85Z" fill="#FFB901"/>
<path d="M32.9813 19.8889L11.4248 25.8879H14.7354L36.2795 19.8889H32.9813Z" fill="#FFB901"/>
<path d="M62.8897 26.9456L41.2959 33.3553L44.5443 33.3678L66.1008 26.9456H62.8897Z" fill="#FFB901"/>
<path d="M86.5981 19.9012L66.3857 25.9126H69.5968L89.7843 19.9012H86.5981Z" fill="#FFB901"/>
<path d="M10.9649 42.3663L0 45.6272V46.6104L14.2631 42.3788L10.9649 42.3663Z" fill="#FFB901"/>
<path d="M150.211 1.00833L133.459 5.98674H136.57L153.31 1.00833H150.211Z" fill="#FFB901"/>
<path d="M130.16 6.95764L112.35 12.2596H115.498L133.284 6.95764H130.16Z" fill="#FFB901"/>
<path d="M108.99 13.2552L90.0225 18.8808H93.2086L112.139 13.2552H108.99Z" fill="#FFB901"/>
<path d="M37.7231 34.4257L14.6357 41.2834H17.9215L40.9715 34.4257H37.7231Z" fill="#FFB901"/>
<path d="M14.6863 59.8907L0 64.5579V65.6159L17.9472 59.8907H14.6863Z" fill="#FFB901"/>
<path d="M94.6017 34.4382L73.0576 41.3084H76.2438L97.7505 34.4382H94.6017Z" fill="#FFB901"/>
<path d="M118.089 26.9707L97.9385 33.3804H101.087L121.2 26.9707H118.089Z" fill="#FFB901"/>
<path d="M199.572 1.0209L183.939 5.99931H186.951L202.571 1.0209H199.572Z" fill="#FFB901"/>
<path d="M43.062 50.8546L18.2695 58.7454H21.5304L46.2855 50.8546H43.062Z" fill="#FFB901"/>
<path d="M161.101 13.2675L143.415 18.9055H146.489L164.163 13.2675H161.101Z" fill="#FFB901"/>
<path d="M180.866 6.98251L164.238 12.2721H167.288L183.891 6.98251H180.866Z" fill="#FFB901"/>
<path d="M140.217 19.9138L121.349 25.9252H124.46L143.303 19.9138H140.217Z" fill="#FFB901"/>
<path d="M69.6355 42.3912L46.5605 49.7344L49.7716 49.7468L72.8341 42.3912H69.6355Z" fill="#FFB901"/>
<path d="M213.225 13.2798L196.796 18.9178H199.77L216.174 13.2798H213.225Z" fill="#FFB901"/>
<path d="M151.479 34.463L131.479 41.3208H134.565L154.529 34.463H151.479Z" fill="#FFB901"/>
<path d="M103.639 50.8672L80.626 58.7579L83.7873 58.7704L106.763 50.8672H103.639Z" fill="#FFB901"/>
<path d="M173.285 26.983L154.579 33.3927H157.628L176.297 26.983H173.285Z" fill="#FFB901"/>
<path d="M49.1247 69.5732L22.4404 78.721H25.6888L52.3358 69.5732H49.1247Z" fill="#FFB901"/>
<path d="M77.2896 59.9027L52.5469 68.3909H55.7455L80.4508 59.9027H77.2896Z" fill="#FFB901"/>
<path d="M248.933 1.0332L234.408 6.01161H237.333L251.833 1.0332H248.933Z" fill="#FFB901"/>
<path d="M128.306 42.404L106.874 49.7596H109.998L131.393 42.404H128.306Z" fill="#FFB901"/>
<path d="M18.918 79.9286L0 86.413V87.5456L22.1788 79.9286H18.918Z" fill="#FFB901"/>
<path d="M193.822 19.9388L176.311 25.9378H179.335L196.809 19.9388H193.822Z" fill="#FFB901"/>
<path d="M231.558 6.99506L216.138 12.2846H219.087L234.496 6.99506H231.558Z" fill="#FFB901"/>
<path d="M113.906 69.5858L89.2881 78.7461H92.4369L117.018 69.5858H113.906Z" fill="#FFB901"/>
<path d="M56.0828 91.0801L27.2578 101.796H30.5062L59.2814 91.0925L56.0828 91.0801Z" fill="#FFB901"/>
<path d="M186.977 42.4286L167.2 49.7718H170.225L189.976 42.4286H186.977Z" fill="#FFB901"/>
<path d="M139.905 59.9276L117.066 68.4158H120.165L142.967 59.9276H139.905Z" fill="#FFB901"/>
<path d="M86.0393 79.9532L59.4297 89.8354H62.6283L89.1881 79.9532H86.0393Z" fill="#FFB901"/>
<path d="M282.263 7.00711L268.024 12.2967H270.887L285.1 7.00711H282.263Z" fill="#FFB901"/>
<path d="M164.212 50.8918L142.979 58.7825H146.041L167.237 50.8918H164.212Z" fill="#FFB901"/>
<path d="M228.483 26.9953L211.221 33.4175H214.183L231.408 26.9953H228.483Z" fill="#FFB901"/>
<path d="M265.336 13.2926L250.177 18.9306H253.064L268.211 13.2926H265.336Z" fill="#FFB901"/>
<path d="M208.371 34.4756L189.913 41.3333H192.9L211.32 34.4756H208.371Z" fill="#FFB901"/>
<path d="M23.7968 103.09L0 111.927V113.159L27.0576 103.09H23.7968Z" fill="#FFB901"/>
<path d="M298.293 1.04575L284.901 6.02415H287.727L301.106 1.04575H298.293Z" fill="#FFB901"/>
<path d="M247.44 19.9511L231.285 25.9626H234.198L250.34 19.9511H247.44Z" fill="#FFB901"/>
<path d="M202.51 59.9399L181.588 68.4405H184.587L205.484 59.9399H202.51Z" fill="#FFB901"/>
<path d="M153.149 79.9658L128.779 89.8603H131.878L156.21 79.9782L153.149 79.9658Z" fill="#FFB901"/>
<path d="M301.057 19.9635L286.246 25.9749H289.084L303.857 19.9635H301.057Z" fill="#FFB901"/>
<path d="M283.681 27.0079L267.862 33.43H270.737L286.519 27.0079H283.681Z" fill="#FFB901"/>
<path d="M332.968 7.01941L319.912 12.309H322.688L335.719 7.01941H332.968Z" fill="#FFB901"/>
<path d="M29.4846 130.136L0 142.109V143.453L32.7579 130.136H29.4846Z" fill="#FFB901"/>
<path d="M265.25 34.4882L248.336 41.3584H251.236L268.113 34.4882H265.25Z" fill="#FFB901"/>
<path d="M178.688 69.6106L156.123 78.7584H159.185L181.7 69.6106H178.688Z" fill="#FFB901"/>
<path d="M224.788 50.9043L205.335 58.7951L208.297 58.8075L227.725 50.9043H224.788Z" fill="#FFB901"/>
<path d="M317.461 13.3172L303.571 18.9428H306.372L320.236 13.3172H317.461Z" fill="#FFB901"/>
<path d="M64.1462 116.084L32.8818 128.767H36.1427L67.3573 116.084H64.1462Z" fill="#FFB901"/>
<path d="M347.655 1.05829L335.383 6.0367L338.121 6.04914L350.38 1.05829H347.655Z" fill="#FFB901"/>
<path d="M125.705 91.1049L99.2949 101.821H102.444L128.804 91.1049H125.705Z" fill="#FFB901"/>
<path d="M245.658 42.4412L227.524 49.7968H230.462L248.558 42.4412H245.658Z" fill="#FFB901"/>
<path d="M96.1197 103.103L67.4316 114.752H70.6303L99.281 103.103H96.1197Z" fill="#FFB901"/>
<path d="M322.128 34.513L306.757 41.3708H309.57L324.916 34.513H322.128Z" fill="#FFB901"/>
<path d="M107.895 130.173L76.8301 144.038H80.066L111.057 130.173H107.895Z" fill="#FFB901"/>
<path d="M397.015 1.07062L385.851 6.06147H388.527L399.653 1.07062H397.015Z" fill="#FFB901"/>
<path d="M139.383 116.109L110.981 128.792H114.143L142.507 116.109H139.383Z" fill="#FFB901"/>
<path d="M369.571 13.3297L356.951 18.9678H359.664L372.272 13.3297H369.571Z" fill="#FFB901"/>
<path d="M354.676 19.976L341.209 25.9874H343.96L357.389 19.9885L354.676 19.976Z" fill="#FFB901"/>
<path d="M39.4912 162.184H36.193L0 178.339V178.937H2.04115L39.4912 162.184Z" fill="#FFB901"/>
<path d="M338.879 27.033L324.517 33.4427H327.292L341.63 27.033H338.879Z" fill="#FFB901"/>
<path d="M73.6172 145.469L39.54 160.678H42.8382L76.8532 145.469H73.6172Z" fill="#FFB901"/>
<path d="M383.661 7.03198L371.812 12.3215L374.501 12.334L386.337 7.03198H383.661Z" fill="#FFB901"/>
<path d="M285.362 50.9292L267.676 58.8199H270.563L288.212 50.9292H285.362Z" fill="#FFB901"/>
<path d="M195.329 91.1298L171.32 101.846H174.382L198.341 91.1298H195.329Z" fill="#FFB901"/>
<path d="M304.33 42.4663L287.852 49.8094H290.702L307.143 42.4663H304.33Z" fill="#FFB901"/>
<path d="M243.47 69.6357L222.972 78.7836H225.934L246.395 69.6357H243.47Z" fill="#FFB901"/>
<path d="M265.125 59.965L246.107 68.4532H249.02L268.012 59.965H265.125Z" fill="#FFB901"/>
<path d="M168.444 103.128L142.369 114.778H145.481L171.505 103.128H168.444Z" fill="#FFB901"/>
<path d="M220.269 79.9909L198.115 89.8855H201.127L223.231 79.9909H220.269Z" fill="#FFB901"/>
<path d="M362.988 42.4783L348.177 49.8339H350.952L365.726 42.4783H362.988Z" fill="#FFB901"/>
<path d="M240.768 103.152L217.308 114.802H220.332L243.743 103.152H240.768Z" fill="#FFB901"/>
<path d="M308.263 69.648L289.818 78.8083H292.693L311.101 69.648H308.263Z" fill="#FFB901"/>
<path d="M287.378 80.0155L267.452 89.8976L270.377 89.9101L290.266 80.0155H287.378Z" fill="#FFB901"/>
<path d="M345.937 50.9417L330.031 58.8449H332.832L348.713 50.9417H345.937Z" fill="#FFB901"/>
<path d="M264.951 91.1547L243.357 101.871H246.332L267.876 91.1547H264.951Z" fill="#FFB901"/>
<path d="M0 223.033V224.389L2.71323 223.045L0 223.033Z" fill="#FFB901"/>
<path d="M327.729 59.9899L310.628 68.478H313.466L330.529 59.9899H327.729Z" fill="#FFB901"/>
<path d="M408.28 20.0011L396.183 26.0001H398.846L410.931 20.0011H408.28Z" fill="#FFB901"/>
<path d="M121.809 162.209L88.043 178.962H91.3163L125.008 162.209H121.809Z" fill="#FFB901"/>
<path d="M434.365 7.04453L423.699 12.3465H426.313L436.954 7.04453H434.365Z" fill="#FFB901"/>
<path d="M155.463 145.494L124.821 160.715H128.02L158.612 145.494H155.463Z" fill="#FFB901"/>
<path d="M44.245 200.705L2.75 221.303H6.19755L47.6055 200.705H44.245Z" fill="#FFB901"/>
<path d="M84.8927 180.529L47.5547 199.062H50.9151L88.166 180.529H84.8927Z" fill="#FFB901"/>
<path d="M421.684 13.3421L410.333 18.9801H412.972L424.31 13.3421H421.684Z" fill="#FFB901"/>
<path d="M379.019 34.5253L365.191 41.3831L367.917 41.3955L381.72 34.5253H379.019Z" fill="#FFB901"/>
<path d="M214.632 116.134L189.08 128.817H192.154L217.656 116.134H214.632Z" fill="#FFB901"/>
<path d="M446.365 1.09521L436.333 6.07362H438.934L448.941 1.09521H446.365Z" fill="#FFB901"/>
<path d="M394.079 27.0453L381.16 33.4674H383.861L396.755 27.0453H394.079Z" fill="#FFB901"/>
<path d="M186.293 130.198L158.352 144.063H161.488L189.379 130.198H186.293Z" fill="#FFB901"/>
<path d="M485.071 7.05707L475.587 12.3591H478.138L487.585 7.05707H485.071Z" fill="#FFB901"/>
<path d="M174.632 180.567L141.463 199.099H144.724L177.818 180.567H174.632Z" fill="#FFB901"/>
<path d="M4.33121 275.742L0 278.169V280.16L7.89078 275.742H4.33121Z" fill="#FFB901"/>
<path d="M289.879 116.159L267.178 128.841H270.165L292.817 116.159H289.879Z" fill="#FFB901"/>
<path d="M473.807 13.3549L463.713 18.9929H466.289L476.358 13.3549H473.807Z" fill="#FFB901"/>
<path d="M237.32 145.519L210.101 160.74H213.212L240.382 145.531L237.32 145.519Z" fill="#FFB901"/>
<path d="M264.701 130.223L239.884 144.087H242.933L267.701 130.223H264.701Z" fill="#FFB901"/>
<path d="M421.672 42.4906L408.517 49.8462H411.205L424.335 42.4906H421.672Z" fill="#FFB901"/>
<path d="M461.897 20.0134L451.144 26.0249H453.745L464.473 20.0134H461.897Z" fill="#FFB901"/>
<path d="M390.344 60.0022L375.147 68.4904H377.91L393.07 60.0022H390.344Z" fill="#FFB901"/>
<path d="M373.044 69.6729L356.665 78.8207L359.465 78.8332L375.807 69.6729H373.044Z" fill="#FFB901"/>
<path d="M138.523 200.742L101.658 221.34H105.006L141.797 200.742H138.523Z" fill="#FFB901"/>
<path d="M449.289 27.0576L437.802 33.4798H440.428L451.891 27.0576H449.289Z" fill="#FFB901"/>
<path d="M207.412 162.234L177.43 178.999H180.616L210.536 162.234H207.412Z" fill="#FFB901"/>
<path d="M495.725 1.10751L486.813 6.08592H489.34L498.226 1.10751H495.725Z" fill="#FFB901"/>
<path d="M334.575 91.1672L315.396 101.896H318.283L337.425 91.1672H334.575Z" fill="#FFB901"/>
<path d="M406.512 50.9663L392.386 58.8571H395.111L409.213 50.9663H406.512Z" fill="#FFB901"/>
<path d="M435.899 34.5376L423.614 41.4078H426.278L438.537 34.5376H435.899Z" fill="#FFB901"/>
<path d="M98.5599 223.07L57.376 246.095H60.8235L101.92 223.082L98.5599 223.07Z" fill="#FFB901"/>
<path d="M354.5 80.0406L336.802 89.9227H339.639L357.3 80.0406H354.5Z" fill="#FFB901"/>
<path d="M313.092 103.178L292.258 114.815L295.195 114.827L315.992 103.178H313.092Z" fill="#FFB901"/>
<path d="M54.1019 247.925L7.80273 273.8H11.3498L57.5495 247.925H54.1019Z" fill="#FFB901"/>
<path d="M232.803 200.779L200.567 221.377L203.841 221.39L235.989 200.779H232.803Z" fill="#FFB901"/>
<path d="M480.343 42.5157L468.83 49.8713H471.456L482.931 42.5157H480.343Z" fill="#FFB901"/>
<path d="M10.7409 342.751L0 349.621V352.023L14.4623 342.751H10.7409Z" fill="#FFB901"/>
<path d="M452.948 60.0273L439.668 68.5154H442.356L455.611 60.0273H452.948Z" fill="#FFB901"/>
<path d="M515.501 20.0257L506.104 26.0372H508.643L518.015 20.0257H515.501Z" fill="#FFB901"/>
<path d="M385.416 103.202L367.207 114.852H370.07L388.241 103.202H385.416Z" fill="#FFB901"/>
<path d="M492.774 34.5627L482.046 41.4205H484.635L495.351 34.5627H492.774Z" fill="#FFB901"/>
<path d="M525.919 13.3672L517.107 19.0052H519.609L528.408 13.3672H525.919Z" fill="#FFB901"/>
<path d="M535.765 7.0817L527.476 12.3713H529.965L538.229 7.0817H535.765Z" fill="#FFB901"/>
<path d="M264.367 180.592L235.368 199.137H238.554L267.479 180.592H264.367Z" fill="#FFB901"/>
<path d="M66.4369 307.143L14.2383 340.511L17.9472 340.523L70.0213 307.143H66.4369Z" fill="#FFB901"/>
<path d="M343.112 130.248L321.419 144.125H324.394L346.037 130.248H343.112Z" fill="#FFB901"/>
<path d="M115.474 275.792L69.6855 305.065H73.2576L118.947 275.792H115.474Z" fill="#FFB901"/>
<path d="M421.622 80.0531L406.139 89.9477H408.914L424.36 80.0531H421.622Z" fill="#FFB901"/>
<path d="M504.474 27.0827L494.442 33.4924H497.006L507.013 27.0827H504.474Z" fill="#FFB901"/>
<path d="M293.029 162.271L266.806 179.036H269.917L296.079 162.271H293.029Z" fill="#FFB901"/>
<path d="M404.196 91.1921L387.432 101.921H390.244L406.972 91.1921H404.196Z" fill="#FFB901"/>
<path d="M365.116 116.184L345.277 128.866H348.19L367.991 116.184H365.116Z" fill="#FFB901"/>
<path d="M437.839 69.6855L423.514 78.8457H426.239L440.527 69.6855H437.839Z" fill="#FFB901"/>
<path d="M197.866 223.108L161.848 246.133H165.208L201.14 223.108H197.866Z" fill="#FFB901"/>
<path d="M467.099 50.9791L454.74 58.8824H457.404L469.725 50.9791H467.099Z" fill="#FFB901"/>
<path d="M319.165 145.556L295.368 160.778H298.405L322.152 145.556H319.165Z" fill="#FFB901"/>
<path d="M545.086 1.1203L537.295 6.09871H539.759L547.526 1.1203H545.086Z" fill="#FFB901"/>
<path d="M158.998 247.962L118.511 273.85H121.971L162.358 247.962H158.998Z" fill="#FFB901"/>
<path d="M457.739 103.228L442.145 114.865L444.945 114.877L460.502 103.228H457.739Z" fill="#FFB901"/>
<path d="M569.12 20.0508L561.067 26.0498H563.544L571.572 20.0508H569.12Z" fill="#FFB901"/>
<path d="M378.646 162.296L356.193 179.061H359.23L381.621 162.296H378.646Z" fill="#FFB901"/>
<path d="M327.081 200.804L299.488 221.415L302.674 221.427L330.193 200.817L327.081 200.804Z" fill="#FFB901"/>
<path d="M440.365 116.209L423.376 128.891H426.226L443.165 116.209H440.365Z" fill="#FFB901"/>
<path d="M354.101 180.629L329.271 199.173H332.383L357.138 180.629H354.101Z" fill="#FFB901"/>
<path d="M297.161 223.145L266.332 246.17L269.618 246.183L300.372 223.145H297.161Z" fill="#FFB901"/>
<path d="M136.956 342.801L85.5664 381.172H89.35L140.59 342.813L136.956 342.801Z" fill="#FFB901"/>
<path d="M488.73 80.0777L475.487 89.9723H478.201L491.406 80.0777H488.73Z" fill="#FFB901"/>
<path d="M184.637 307.193L139.943 340.573H143.578L188.147 307.193H184.637Z" fill="#FFB901"/>
<path d="M594.447 1.13263L587.776 6.11104H590.178L596.825 1.13263H594.447Z" fill="#FFB901"/>
<path d="M82.3295 383.599L22.6758 428.143H26.6212L86.1131 383.599H82.3295Z" fill="#FFB901"/>
<path d="M549.653 34.5753L540.468 41.4455H542.994L552.167 34.5753H549.653Z" fill="#FFB901"/>
<path d="M527.66 51.004L517.094 58.8948H519.695L530.237 51.004H527.66Z" fill="#FFB901"/>
<path d="M586.457 7.09448L579.362 12.384H581.789L588.871 7.09448H586.457Z" fill="#FFB901"/>
<path d="M263.88 247.999L229.23 273.887H232.616L267.178 247.999H263.88Z" fill="#FFB901"/>
<path d="M559.673 27.0952L551.085 33.5174H553.587L562.162 27.0952H559.673Z" fill="#FFB901"/>
<path d="M401.024 145.581L380.649 160.803H383.624L403.936 145.581H401.024Z" fill="#FFB901"/>
<path d="M19.142 430.794L0 445.095V448.094L23.0874 430.794H19.142Z" fill="#FFB901"/>
<path d="M539.012 42.528L529.167 49.8836H531.718L541.551 42.528H539.012Z" fill="#FFB901"/>
<path d="M226.63 275.829L187.425 305.114H190.922L230.015 275.829H226.63Z" fill="#FFB901"/>
<path d="M502.62 69.7103L490.36 78.8706H493.024L505.258 69.7103H502.62Z" fill="#FFB901"/>
<path d="M578.031 13.3795L570.488 19.0299H572.928L580.458 13.3919L578.031 13.3795Z" fill="#FFB901"/>
<path d="M421.522 130.272L402.952 144.15H405.852L424.384 130.272H421.522Z" fill="#FFB901"/>
<path d="M473.82 91.2172L459.47 101.946H462.22L476.533 91.2172H473.82Z" fill="#FFB901"/>
<path d="M515.563 60.0396L504.188 68.5402H506.814L518.164 60.0396H515.563Z" fill="#FFB901"/>
<path d="M614.871 27.1075L607.727 33.5297H610.178L617.31 27.1075H614.871Z" fill="#FFB901"/>
<path d="M464.262 162.334L445.58 179.098H448.555L467.174 162.334H464.262Z" fill="#FFB901"/>
<path d="M622.724 20.0634L616.028 26.0748H618.455L625.126 20.0634H622.724Z" fill="#FFB901"/>
<path d="M396.481 223.182L370.817 246.22H374.041L399.605 223.182H396.481Z" fill="#FFB901"/>
<path d="M578.169 60.0647L568.71 68.5529H571.286L580.72 60.0647H578.169Z" fill="#FFB901"/>
<path d="M482.881 145.606L465.93 160.828H468.842L485.744 145.606H482.881Z" fill="#FFB901"/>
<path d="M443.836 180.667L423.188 199.199L426.238 199.211L446.823 180.667H443.836Z" fill="#FFB901"/>
<path d="M421.359 200.842L398.396 221.452H401.533L424.409 200.842H421.359Z" fill="#FFB901"/>
<path d="M499.931 130.298L484.485 144.175H487.336L502.731 130.298H499.931Z" fill="#FFB901"/>
<path d="M597.682 42.5529L589.48 49.9085H591.995L600.159 42.5529H597.682Z" fill="#FFB901"/>
<path d="M302.849 307.243L265.673 340.623H269.22L306.284 307.243H302.849Z" fill="#FFB901"/>
<path d="M588.249 51.0163L579.449 58.9195H581.988L590.763 51.0163H588.249Z" fill="#FFB901"/>
<path d="M630.142 13.4046L623.856 19.0426H626.271L632.519 13.4046H630.142Z" fill="#FFB901"/>
<path d="M217.731 383.661L168.108 428.218H171.967L221.44 383.661H217.731Z" fill="#FFB901"/>
<path d="M606.545 34.5876L598.891 41.4578H601.38L608.997 34.5876H606.545Z" fill="#FFB901"/>
<path d="M555.852 80.1028L544.837 89.9974H547.488L558.478 80.1028H555.852Z" fill="#FFB901"/>
<path d="M543.443 91.242L531.507 101.958H534.195L546.106 91.242H543.443Z" fill="#FFB901"/>
<path d="M643.795 1.14517L638.244 6.12358H640.596L646.135 1.14517H643.795Z" fill="#FFB901"/>
<path d="M337.786 275.878L305.165 305.164H308.6L341.109 275.878H337.786Z" fill="#FFB901"/>
<path d="M30.6172 551.645L0 579.138V583.109L34.936 551.645H30.6172Z" fill="#FFB901"/>
<path d="M165.146 430.869L106.874 483.192H110.944L169.029 430.869H165.146Z" fill="#FFB901"/>
<path d="M637.162 7.10678L631.25 12.3963L633.64 12.4088L639.514 7.10678H637.162Z" fill="#FFB901"/>
<path d="M368.788 248.049L339.95 273.937H343.273L372.011 248.049H368.788Z" fill="#FFB901"/>
<path d="M515.613 116.234L501.475 128.916H504.275L518.364 116.234H515.613Z" fill="#FFB901"/>
<path d="M263.184 342.863L220.432 381.234H224.128L266.743 342.863H263.184Z" fill="#FFB901"/>
<path d="M530.063 103.252L517.094 114.889L519.844 114.902L532.776 103.252H530.063Z" fill="#FFB901"/>
<path d="M103.614 486.117L34.2646 548.372H38.571L107.696 486.117H103.614Z" fill="#FFB901"/>
<path d="M567.402 69.7226L557.196 78.8829H559.822L569.991 69.7351L567.402 69.7226Z" fill="#FFB901"/>
<path d="M564.738 145.643L551.209 160.865H554.072L567.551 145.643H564.738Z" fill="#FFB901"/>
<path d="M670.068 27.1327L664.368 33.5424H666.77L672.458 27.1327H670.068Z" fill="#FFB901"/>
<path d="M262.075 486.192L206.728 548.459L210.959 548.471L266.083 486.192H262.075Z" fill="#FFB901"/>
<path d="M47.3447 727.806L0 781.075V786.775L52.1986 727.806H47.3447Z" fill="#FFB901"/>
<path d="M133.621 630.727L51.166 723.5H56.0075L138.126 630.727H133.621Z" fill="#FFB901"/>
<path d="M203.815 551.732L136.918 627.018H141.411L208.059 551.732H203.815Z" fill="#FFB901"/>
<path d="M311.188 430.931L264.677 483.267H268.672L314.996 430.931H311.188Z" fill="#FFB901"/>
<path d="M613.066 91.2669L603.545 101.983H606.196L615.68 91.2669H613.066Z" fill="#FFB901"/>
<path d="M549.878 162.358L534.98 179.123H537.905L552.741 162.358H549.878Z" fill="#FFB901"/>
<path d="M693.144 1.15747L688.726 6.13588H691.041L695.446 1.15747H693.144Z" fill="#FFB901"/>
<path d="M353.143 383.723L313.54 428.28H317.336L356.79 383.723H353.143Z" fill="#FFB901"/>
<path d="M648.824 51.0414L641.805 58.9322H644.294L651.289 51.0414H648.824Z" fill="#FFB901"/>
<path d="M515.638 200.879L497.317 221.489H500.392L518.637 200.879H515.638Z" fill="#FFB901"/>
<path d="M421.075 307.292L391.403 340.673L394.888 340.685L424.447 307.292H421.075Z" fill="#FFB901"/>
<path d="M687.855 7.11932L683.138 12.4213H685.478L690.17 7.11932H687.855Z" fill="#FFB901"/>
<path d="M533.586 180.691L517.107 199.236H520.094L536.511 180.691H533.586Z" fill="#FFB901"/>
<path d="M448.952 275.916L422.915 305.214H426.288L452.213 275.916H448.952Z" fill="#FFB901"/>
<path d="M622.973 80.1154L614.174 90.01L616.787 90.0224L625.549 80.1154H622.973Z" fill="#FFB901"/>
<path d="M590.862 116.258L579.573 128.941L582.324 128.953L593.563 116.258H590.862Z" fill="#FFB901"/>
<path d="M473.684 248.087L450.684 273.974H453.944L476.858 248.087H473.684Z" fill="#FFB901"/>
<path d="M682.254 13.4171L677.238 19.0552H679.603L684.594 13.4171H682.254Z" fill="#FFB901"/>
<path d="M663.422 34.6127L657.312 41.4829H659.751L665.837 34.6127H663.422Z" fill="#FFB901"/>
<path d="M495.788 223.22L475.314 246.257H478.476L498.862 223.22H495.788Z" fill="#FFB901"/>
<path d="M676.342 20.0754L670.99 26.0869H673.38L678.707 20.0754H676.342Z" fill="#FFB901"/>
<path d="M602.4 103.265L592.045 114.914L594.746 114.927L605.051 103.277L602.4 103.265Z" fill="#FFB901"/>
<path d="M578.355 130.322L566.021 144.2H568.822L581.106 130.322H578.355Z" fill="#FFB901"/>
<path d="M656.353 42.5657L649.807 49.9213H652.283L658.793 42.5657H656.353Z" fill="#FFB901"/>
<path d="M632.183 69.7477L624.043 78.908H626.619L634.722 69.7477H632.183Z" fill="#FFB901"/>
<path d="M640.783 60.0772L633.229 68.5778H635.768L643.285 60.0772H640.783Z" fill="#FFB901"/>
<path d="M389.41 342.913L355.296 381.296H358.93L392.908 342.913H389.41Z" fill="#FFB901"/>
<path d="M734.365 13.4294L730.619 19.0675H732.947L736.668 13.4294H734.365Z" fill="#FFB901"/>
<path d="M609.929 200.916L596.238 221.527L599.275 221.539L612.891 200.916H609.929Z" fill="#FFB901"/>
<path d="M682.688 91.2794L675.569 102.008H678.183L685.265 91.2794H682.688Z" fill="#FFB901"/>
<path d="M725.267 27.145L720.998 33.5671H723.375L727.619 27.145H725.267Z" fill="#FFB901"/>
<path d="M515.652 342.963L490.162 381.359H493.759L519.099 342.963H515.652Z" fill="#FFB901"/>
<path d="M656.764 130.347L647.554 144.237H650.304L659.477 130.347H656.764Z" fill="#FFB901"/>
<path d="M539.299 307.342L517.133 340.735H520.58L542.622 307.342H539.299Z" fill="#FFB901"/>
<path d="M696.965 69.7726L690.892 78.9328H693.418L699.467 69.7726H696.965Z" fill="#FFB901"/>
<path d="M729.948 20.0877L725.953 26.0992H728.305L732.276 20.0877H729.948Z" fill="#FFB901"/>
<path d="M666.098 116.271L657.672 128.966L660.385 128.978L668.761 116.283L666.098 116.271Z" fill="#FFB901"/>
<path d="M578.59 248.124L561.402 274.024H564.613L581.714 248.124H578.59Z" fill="#FFB901"/>
<path d="M738.534 7.13165L735.024 12.4337H737.327L740.824 7.13165H738.534Z" fill="#FFB901"/>
<path d="M674.724 103.302L666.982 114.952H669.646L677.337 103.302H674.724Z" fill="#FFB901"/>
<path d="M457.216 431.006L422.479 483.342H426.425L460.975 431.006H457.216Z" fill="#FFB901"/>
<path d="M260.147 727.931L182.446 844.998L187.636 845.01L264.938 727.931H260.147Z" fill="#FFB901"/>
<path d="M720.289 34.625L715.733 41.4952H718.135L722.678 34.625H720.289Z" fill="#FFB901"/>
<path d="M646.596 145.669L636.49 160.89H639.315L649.359 145.669H646.596Z" fill="#FFB901"/>
<path d="M179.061 850.101L78.0488 1002.3H83.7989L184.276 850.101H179.061Z" fill="#FFB901"/>
<path d="M623.323 180.729L611.026 199.273H613.976L626.211 180.729H623.323Z" fill="#FFB901"/>
<path d="M324.592 630.839L263.009 723.624H267.776L329.047 630.839H324.592Z" fill="#FFB901"/>
<path d="M560.12 275.966L540.68 305.264H543.99L563.331 275.966H560.12Z" fill="#FFB901"/>
<path d="M690.082 80.1398L683.511 90.0343H686.087L692.621 80.1398H690.082Z" fill="#FFB901"/>
<path d="M703.387 60.1018L697.749 68.59L700.251 68.6025L705.851 60.1018H703.387Z" fill="#FFB901"/>
<path d="M420.538 486.266L379.205 548.546L383.362 548.558L424.484 486.266H420.538Z" fill="#FFB901"/>
<path d="M715.012 42.578L710.133 49.946H712.56L717.426 42.578H715.012Z" fill="#FFB901"/>
<path d="M709.385 51.0537L704.146 58.9569H706.61L711.825 51.0537H709.385Z" fill="#FFB901"/>
<path d="M377.027 551.832L327.057 627.118L331.5 627.13L381.209 551.832H377.027Z" fill="#FFB901"/>
<path d="M73.9173 1008.53L41.707 1057.07H47.6438L79.6923 1008.53H73.9173Z" fill="#FFB901"/>
<path d="M595.094 223.257L579.811 246.294L582.922 246.307L598.131 223.257H595.094Z" fill="#FFB901"/>
<path d="M488.556 383.785L458.972 428.355H462.73L492.153 383.785H488.556Z" fill="#FFB901"/>
<path d="M635.494 162.384L624.367 179.161H627.255L638.319 162.384H635.494Z" fill="#FFB901"/>
<path d="M742.492 1.16977L739.193 6.16062H741.471L744.757 1.16977H742.492Z" fill="#FFB901"/>
<path d="M777.166 34.6501L774.154 41.5078H776.531L779.531 34.6501H777.166Z" fill="#FFB901"/>
<path d="M728.452 145.693L721.781 160.915L724.569 160.927L731.19 145.693H728.452Z" fill="#FFB901"/>
<path d="M789.228 7.15674L786.9 12.4463H789.19L791.493 7.15674H789.228Z" fill="#FFB901"/>
<path d="M550.263 551.919L517.231 627.23H521.625L554.395 551.919H550.263Z" fill="#FFB901"/>
<path d="M472.998 728.055L421.633 845.159H426.773L477.739 728.055H472.998Z" fill="#FFB901"/>
<path d="M349.883 1008.73L328.675 1057.07H334.549L355.596 1008.73H349.883Z" fill="#FFB901"/>
<path d="M623.993 383.848L604.428 428.417L608.149 428.429L627.552 383.848H623.993Z" fill="#FFB901"/>
<path d="M657.523 307.392L642.874 340.785H646.284L660.821 307.392H657.523Z" fill="#FFB901"/>
<path d="M761.747 69.7977L757.739 78.9579H760.241L764.224 69.7977H761.747Z" fill="#FFB901"/>
<path d="M735.174 130.384L729.088 144.262H731.826L737.862 130.384H735.174Z" fill="#FFB901"/>
<path d="M419.393 850.25L352.607 1002.49L358.295 1002.5L424.558 850.262L419.393 850.25Z" fill="#FFB901"/>
<path d="M713.071 180.753L704.943 199.31H707.868L715.933 180.753H713.071Z" fill="#FFB901"/>
<path d="M671.29 276.003L658.445 305.314H661.731L674.476 276.016L671.29 276.003Z" fill="#FFB901"/>
<path d="M765.991 60.1146L762.27 68.6153H764.746L768.443 60.1146H765.991Z" fill="#FFB901"/>
<path d="M757.204 80.1649L752.86 90.0594H755.412L759.718 80.1649H757.204Z" fill="#FFB901"/>
<path d="M769.961 51.0786L766.501 58.9693H768.94L772.376 51.0786H769.961Z" fill="#FFB901"/>
<path d="M783.553 20.1005L780.914 26.112L783.241 26.1244L785.855 20.113L783.553 20.1005Z" fill="#FFB901"/>
<path d="M786.464 13.4417L783.987 19.0922H786.302L788.754 13.4417H786.464Z" fill="#FFB901"/>
<path d="M791.839 1.18259L789.661 6.17344H791.914L794.08 1.18259H791.839Z" fill="#FFB901"/>
<path d="M721.123 162.421L713.768 179.185L716.618 179.198L723.911 162.421H721.123Z" fill="#FFB901"/>
<path d="M579.025 486.353L551.693 548.646H555.825L582.933 486.353H579.025Z" fill="#FFB901"/>
<path d="M683.497 248.174L672.146 274.061L675.32 274.074L686.596 248.174H683.497Z" fill="#FFB901"/>
<path d="M773.682 42.6028L770.446 49.9584H772.861L776.059 42.6028H773.682Z" fill="#FFB901"/>
<path d="M641.89 343.025L625.051 381.421H628.598L645.313 343.025H641.89Z" fill="#FFB901"/>
<path d="M747.048 103.314L741.933 114.976H744.571L749.637 103.314H747.048Z" fill="#FFB901"/>
<path d="M704.22 200.953L695.172 221.564H698.171L707.145 200.953H704.22Z" fill="#FFB901"/>
<path d="M515.601 630.938L474.89 723.748H479.619L520.006 630.938H515.601Z" fill="#FFB901"/>
<path d="M603.271 431.068L580.308 483.416L584.203 483.428L606.992 431.068H603.271Z" fill="#FFB901"/>
<path d="M694.414 223.294L684.308 246.344H687.394L697.426 223.294H694.414Z" fill="#FFB901"/>
<path d="M741.346 116.308L735.782 129.003H738.458L743.984 116.308H741.346Z" fill="#FFB901"/>
<path d="M780.451 27.1575L777.639 33.5796H779.991L782.779 27.1575H780.451Z" fill="#FFB901"/>
<path d="M752.312 91.3043L747.607 102.033H750.196L754.863 91.3043H752.312Z" fill="#FFB901"/>
<path d="M832.341 42.6151L830.772 49.9832H833.162L834.705 42.6151H832.341Z" fill="#FFB901"/>
<path d="M706.622 631.051L686.783 723.873H691.488L711.003 631.051H706.622Z" fill="#FFB901"/>
<path d="M749.338 431.143L738.149 483.503H742.02L753.035 431.143H749.338Z" fill="#FFB901"/>
<path d="M806.738 162.446L803.153 179.223H805.991L809.513 162.446H806.738Z" fill="#FFB901"/>
<path d="M841.189 1.19489L840.118 6.18574H842.371L843.416 1.19489H841.189Z" fill="#FFB901"/>
<path d="M768.143 343.075L759.941 381.471L763.476 381.483L771.541 343.075H768.143Z" fill="#FFB901"/>
<path d="M737.526 486.428L724.209 548.733H728.304L741.409 486.428H737.526Z" fill="#FFB901"/>
<path d="M793.732 223.332L788.804 246.382H791.878L796.719 223.332H793.732Z" fill="#FFB901"/>
<path d="M798.512 200.991L794.094 221.602L797.081 221.614L801.412 200.991H798.512Z" fill="#FFB901"/>
<path d="M788.417 248.211L782.879 274.111H786.04L791.492 248.211H788.417Z" fill="#FFB901"/>
<path d="M819.37 103.339L816.881 114.989L819.494 115.001L821.946 103.339H819.37Z" fill="#FFB901"/>
<path d="M821.935 91.3289L819.645 102.057H822.221L824.474 91.3289H821.935Z" fill="#FFB901"/>
<path d="M828.594 60.1395L826.776 68.6401H829.241L831.033 60.1395H828.594Z" fill="#FFB901"/>
<path d="M810.311 145.718L807.062 160.952H809.838L813.037 145.718H810.311Z" fill="#FFB901"/>
<path d="M824.312 80.1772L822.196 90.0842H824.735L826.814 80.1772H824.312Z" fill="#FFB901"/>
<path d="M830.536 51.0911L828.844 58.9943H831.271L832.926 51.0911H830.536Z" fill="#FFB901"/>
<path d="M838.576 13.4668L837.369 19.1049H839.659L840.842 13.4668H838.576Z" fill="#FFB901"/>
<path d="M659.752 850.412L627.218 1002.69L632.881 1002.7L664.892 850.412H659.752Z" fill="#FFB901"/>
<path d="M837.144 20.1252L835.862 26.1366H838.177L839.434 20.1252H837.144Z" fill="#FFB901"/>
<path d="M813.584 130.41L810.622 144.287H813.335L816.26 130.41H813.584Z" fill="#FFB901"/>
<path d="M802.818 180.791L798.86 199.336L801.76 199.348L805.668 180.791H802.818Z" fill="#FFB901"/>
<path d="M723.512 552.006L707.419 627.329H711.788L727.619 552.006H723.512Z" fill="#FFB901"/>
<path d="M775.76 307.429L768.629 340.835L772.014 340.847L779.034 307.429H775.76Z" fill="#FFB901"/>
<path d="M685.875 728.18L660.846 845.309H665.961L690.579 728.192L685.875 728.18Z" fill="#FFB901"/>
<path d="M625.885 1008.92L615.604 1057.07H621.442L631.56 1008.92H625.885Z" fill="#FFB901"/>
<path d="M759.419 383.898L749.897 428.492H753.594L762.966 383.91L759.419 383.898Z" fill="#FFB901"/>
<path d="M816.594 116.333L813.881 129.028H816.544L819.208 116.333H816.594Z" fill="#FFB901"/>
<path d="M835.638 27.1698L834.269 33.592H836.608L837.953 27.1823L835.638 27.1698Z" fill="#FFB901"/>
<path d="M834.047 34.6624L832.578 41.5326H834.943L836.387 34.6624H834.047Z" fill="#FFB901"/>
<path d="M826.527 69.81L824.573 78.9702H827.062L828.992 69.81H826.527Z" fill="#FFB901"/>
<path d="M839.921 7.15674L838.788 12.4587H841.053L842.161 7.16918L839.921 7.15674Z" fill="#FFB901"/>
<path d="M782.469 276.053L776.209 305.351L779.47 305.363L785.631 276.053H782.469Z" fill="#FFB901"/>
<path d="M891.557 91.3538L891.669 102.082H894.245L894.083 91.3538H891.557Z" fill="#FFB901"/>
<path d="M892.367 162.483L892.554 179.26H895.379L895.13 162.483H892.367Z" fill="#FFB901"/>
<path d="M892.168 145.755L892.342 160.977H895.118L894.894 145.755H892.168Z" fill="#FFB901"/>
<path d="M892.568 180.828L892.78 199.373H895.68L895.406 180.828H892.568Z" fill="#FFB901"/>
<path d="M896.039 486.503L896.736 548.82H900.831L899.922 486.503H896.039Z" fill="#FFB901"/>
<path d="M890.748 20.1377L890.81 26.1491H893.125L893.038 20.1377H890.748Z" fill="#FFB901"/>
<path d="M901.961 1009.12L902.496 1057.07H908.333L907.624 1009.12H901.961Z" fill="#FFB901"/>
<path d="M897.668 631.15L898.726 723.997H903.418L902.049 631.15H897.668Z" fill="#FFB901"/>
<path d="M890.824 27.1949L890.899 33.6171H893.239L893.139 27.1949H890.824Z" fill="#FFB901"/>
<path d="M891.992 130.434L892.154 144.312H894.867L894.656 130.434H891.992Z" fill="#FFB901"/>
<path d="M891.197 60.1518L891.297 68.6524H893.749L893.624 60.1518H891.197Z" fill="#FFB901"/>
<path d="M893.648 276.103L893.984 305.401L897.245 305.413L896.81 276.103H893.648Z" fill="#FFB901"/>
<path d="M900.16 850.561L901.89 1002.88L907.541 1002.89L905.288 850.561H900.16Z" fill="#FFB901"/>
<path d="M891.312 69.8348L891.412 78.9951H893.914L893.777 69.8348H891.312Z" fill="#FFB901"/>
<path d="M894.408 343.125L894.844 381.533L898.366 381.545L897.806 343.125H894.408Z" fill="#FFB901"/>
<path d="M890.998 42.6403L891.085 49.9959H893.475L893.363 42.6403H890.998Z" fill="#FFB901"/>
<path d="M894 307.479L894.386 340.896H897.771L897.273 307.491L894 307.479Z" fill="#FFB901"/>
<path d="M890.6 7.18161L890.662 12.4712L892.927 12.4836L892.84 7.18161H890.6Z" fill="#FFB901"/>
<path d="M891.098 51.116L891.185 59.0067H893.612L893.487 51.116H891.098Z" fill="#FFB901"/>
<path d="M891.436 80.202L891.548 90.109H894.074L893.925 80.202H891.436Z" fill="#FFB901"/>
<path d="M894.869 383.96L895.379 428.554H899.063L898.404 383.96H894.869Z" fill="#FFB901"/>
<path d="M895.404 431.205L896.002 483.578H899.872L899.101 431.205H895.404Z" fill="#FFB901"/>
<path d="M893.051 223.369L893.312 246.419H896.374L896.038 223.369H893.051Z" fill="#FFB901"/>
<path d="M890.674 13.4794L890.736 19.1174H893.014L892.939 13.4794H890.674Z" fill="#FFB901"/>
<path d="M890.535 1.21973L890.585 6.19813H892.825L892.751 1.21973H890.535Z" fill="#FFB901"/>
<path d="M896.773 552.093L897.632 627.441H902.001L900.881 552.093H896.773Z" fill="#FFB901"/>
<path d="M898.777 728.304L900.109 845.47H905.212L903.482 728.304H898.777Z" fill="#FFB901"/>
<path d="M892.803 201.016L893.027 221.651H896.014L895.703 201.016H892.803Z" fill="#FFB901"/>
<path d="M891.693 103.364L891.818 115.026H894.431L894.257 103.364H891.693Z" fill="#FFB901"/>
<path d="M890.912 34.6749L890.987 41.5451H893.352L893.252 34.6749H890.912Z" fill="#FFB901"/>
<path d="M891.844 116.358L891.981 129.053H894.644L894.457 116.358H891.844Z" fill="#FFB901"/>
<path d="M893.338 248.248L893.624 274.148L896.785 274.161L896.4 248.248H893.338Z" fill="#FFB901"/>
<path d="M1070.07 552.192L1087.87 627.541H1092.24L1074.18 552.192H1070.07Z" fill="#FFB901"/>
<path d="M956.09 69.8474L958.255 79.0201H960.745L958.554 69.8474H956.09Z" fill="#FFB901"/>
<path d="M977.982 162.508L981.953 179.285H984.79L980.758 162.508H977.982Z" fill="#FFB901"/>
<path d="M946.01 27.2072L947.528 33.6294H949.868L948.325 27.2072H946.01Z" fill="#FFB901"/>
<path d="M1178.08 1009.31L1189.37 1057.07H1195.2L1183.77 1009.31H1178.08Z" fill="#FFB901"/>
<path d="M970.416 130.46L973.689 144.337H976.403L973.079 130.46H970.416Z" fill="#FFB901"/>
<path d="M1020.67 343.187L1029.76 381.595L1033.28 381.608L1024.07 343.187H1020.67Z" fill="#FFB901"/>
<path d="M1012.26 307.529L1020.15 340.947H1023.54L1015.53 307.529H1012.26Z" fill="#FFB901"/>
<path d="M1088.75 631.25L1110.69 724.134H1115.4L1093.13 631.262L1088.75 631.25Z" fill="#FFB901"/>
<path d="M974.037 145.78L977.634 161.014H980.409L976.75 145.78H974.037Z" fill="#FFB901"/>
<path d="M941.279 7.19391L942.536 12.4959H944.802L943.532 7.19391H941.279Z" fill="#FFB901"/>
<path d="M987.094 201.053L991.96 221.676H994.947L990.006 201.053H987.094Z" fill="#FFB901"/>
<path d="M992.371 223.406L997.822 246.456H1000.88L995.371 223.406H992.371Z" fill="#FFB901"/>
<path d="M1140.62 850.723L1176.61 1003.09H1182.27L1145.74 850.723H1140.62Z" fill="#FFB901"/>
<path d="M942.775 13.4917L944.107 19.1297H946.397L945.041 13.4917H942.775Z" fill="#FFB901"/>
<path d="M998.258 248.286L1004.38 274.198H1007.54L1001.33 248.298L998.258 248.286Z" fill="#FFB901"/>
<path d="M944.342 20.15L945.761 26.1614H948.076L946.632 20.15H944.342Z" fill="#FFB901"/>
<path d="M982.312 180.853L986.706 199.41H989.606L985.163 180.853H982.312Z" fill="#FFB901"/>
<path d="M1004.84 276.14L1011.76 305.45H1015.04L1008 276.153L1004.84 276.14Z" fill="#FFB901"/>
<path d="M1041.5 431.28L1053.87 483.653H1057.75L1045.19 431.28H1041.5Z" fill="#FFB901"/>
<path d="M961.168 91.3786L963.707 102.107H966.283L963.707 91.3786H961.168Z" fill="#FFB901"/>
<path d="M949.668 42.6526L951.398 50.0082H953.8L952.033 42.6526H949.668Z" fill="#FFB901"/>
<path d="M939.873 1.2323L941.055 6.21071H943.296L942.101 1.2323H939.873Z" fill="#FFB901"/>
<path d="M1111.72 728.428L1139.41 845.62H1144.52L1116.43 728.428H1111.72Z" fill="#FFB901"/>
<path d="M951.662 51.1285L953.529 59.0317H955.956L954.064 51.1285H951.662Z" fill="#FFB901"/>
<path d="M964.018 103.389L966.768 115.051H969.382L966.594 103.389H964.018Z" fill="#FFB901"/>
<path d="M953.801 60.1769L955.817 68.6775H958.269L956.228 60.1769H953.801Z" fill="#FFB901"/>
<path d="M947.777 34.6993L949.408 41.5695H951.772L950.13 34.6993H947.777Z" fill="#FFB901"/>
<path d="M958.543 80.2271L960.883 90.1217H963.409L961.045 80.2271H958.543Z" fill="#FFB901"/>
<path d="M1054.56 486.577L1069.29 548.907H1073.4L1058.45 486.577H1054.56Z" fill="#FFB901"/>
<path d="M1030.33 384.022L1040.87 428.629H1044.56L1033.87 384.022H1030.33Z" fill="#FFB901"/>
<path d="M967.082 116.383L970.081 129.078H972.757L969.708 116.383H967.082Z" fill="#FFB901"/>
<path d="M1001.2 27.2198L1004.16 33.6419L1006.51 33.6544L1003.52 27.2198H1001.2Z" fill="#FFB901"/>
<path d="M1454.25 1009.51L1476.18 1057.07H1482.06L1459.97 1009.51H1454.25Z" fill="#FFB901"/>
<path d="M1016.41 60.2015L1020.33 68.6897L1022.8 68.7021L1018.85 60.2015H1016.41Z" fill="#FFB901"/>
<path d="M1103.18 248.336L1115.12 274.236L1118.31 274.248L1106.26 248.336H1103.18Z" fill="#FFB901"/>
<path d="M997.934 20.1628L1000.71 26.1867H1003.04L1000.25 20.1628H997.934Z" fill="#FFB901"/>
<path d="M1048.83 130.484L1055.22 144.374H1057.96L1051.51 130.484H1048.83Z" fill="#FFB901"/>
<path d="M1055.88 145.805L1062.91 161.039H1065.7L1058.63 145.805H1055.88Z" fill="#FFB901"/>
<path d="M1030.79 91.3911L1035.73 102.12L1038.34 102.132L1033.34 91.4036L1030.79 91.3911Z" fill="#FFB901"/>
<path d="M1279.84 631.362L1322.68 724.246L1327.42 724.259L1284.25 631.362H1279.84Z" fill="#FFB901"/>
<path d="M1008.31 42.6651L1011.71 50.0331H1014.13L1010.7 42.6651H1008.31Z" fill="#FFB901"/>
<path d="M1381.09 850.872L1451.38 1003.29H1457.07L1386.25 850.885L1381.09 850.872Z" fill="#FFB901"/>
<path d="M1063.6 162.533L1071.34 179.322H1074.2L1066.4 162.545L1063.6 162.533Z" fill="#FFB901"/>
<path d="M1165.78 384.084L1186.37 428.691H1190.08L1169.35 384.084H1165.78Z" fill="#FFB901"/>
<path d="M1187.59 431.342L1211.74 483.727H1215.65L1191.31 431.342H1187.59Z" fill="#FFB901"/>
<path d="M1146.95 343.237L1164.66 381.657H1168.22L1150.37 343.237H1146.95Z" fill="#FFB901"/>
<path d="M991.961 7.20645L994.413 12.5085H996.69L994.226 7.20645H991.961Z" fill="#FFB901"/>
<path d="M1130.5 307.579L1145.92 340.996L1149.33 341.009L1133.8 307.579H1130.5Z" fill="#FFB901"/>
<path d="M1042.33 116.408L1048.18 129.103H1050.87L1044.97 116.408H1042.33Z" fill="#FFB901"/>
<path d="M1091.69 223.444L1102.33 246.506H1105.42L1094.7 223.444H1091.69Z" fill="#FFB901"/>
<path d="M994.857 13.504L997.471 19.142L999.774 19.1545L997.147 13.504H994.857Z" fill="#FFB901"/>
<path d="M1116.02 276.19L1129.54 305.5H1132.84L1119.21 276.19H1116.02Z" fill="#FFB901"/>
<path d="M1012.22 51.1411L1015.87 59.0443L1018.31 59.0567L1014.64 51.1411H1012.22Z" fill="#FFB901"/>
<path d="M1213.1 486.652L1241.85 548.994L1245.98 549.007L1217.01 486.664L1213.1 486.652Z" fill="#FFB901"/>
<path d="M1081.38 201.091L1090.89 221.714H1093.91L1084.31 201.091H1081.38Z" fill="#FFB901"/>
<path d="M1324.67 728.565L1378.73 845.782H1383.89L1329.42 728.565H1324.67Z" fill="#FFB901"/>
<path d="M1004.64 34.7121L1007.81 41.5823H1010.19L1007.01 34.7121H1004.64Z" fill="#FFB901"/>
<path d="M1036.33 103.414L1041.71 115.064L1044.35 115.076L1038.93 103.414H1036.33Z" fill="#FFB901"/>
<path d="M989.209 1.24484L991.512 6.22325H993.764L991.449 1.24484H989.209Z" fill="#FFB901"/>
<path d="M1243.36 552.28L1278.12 627.653H1282.53L1247.5 552.28H1243.36Z" fill="#FFB901"/>
<path d="M1072.06 180.891L1080.62 199.448H1083.55L1074.92 180.891H1072.06Z" fill="#FFB901"/>
<path d="M1025.65 80.2522L1030.22 90.1468H1032.76L1028.17 80.2522H1025.65Z" fill="#FFB901"/>
<path d="M1020.86 69.872L1025.09 79.0322H1027.61L1023.34 69.872H1020.86Z" fill="#FFB901"/>
<path d="M1248.76 307.628L1271.7 341.058H1275.15L1252.1 307.628H1248.76Z" fill="#FFB901"/>
<path d="M1038.54 1.25714L1041.97 6.23555H1044.25L1040.81 1.25714H1038.54Z" fill="#FFB901"/>
<path d="M1137.75 145.83L1148.2 161.077H1151.02L1140.52 145.843L1137.75 145.83Z" fill="#FFB901"/>
<path d="M1108.65 103.439L1116.66 115.089L1119.32 115.101L1111.28 103.439H1108.65Z" fill="#FFB901"/>
<path d="M1092.76 80.2645L1099.56 90.1716H1102.13L1095.3 80.2645H1092.76Z" fill="#FFB901"/>
<path d="M1161.82 180.915L1174.56 199.485H1177.51L1164.71 180.915H1161.82Z" fill="#FFB901"/>
<path d="M1072.8 51.1659L1078.21 59.0691H1080.68L1075.23 51.1659H1072.8Z" fill="#FFB901"/>
<path d="M1051.54 20.1874L1055.66 26.1988H1058.01L1053.87 20.1874H1051.54Z" fill="#FFB901"/>
<path d="M1301.25 384.146L1331.87 428.765H1335.62L1304.85 384.146H1301.25Z" fill="#FFB901"/>
<path d="M1149.23 162.57L1160.74 179.348H1163.63L1152.05 162.57H1149.23Z" fill="#FFB901"/>
<path d="M1208.1 248.373L1225.88 274.285H1229.09L1211.22 248.373H1208.1Z" fill="#FFB901"/>
<path d="M1066.97 42.6902L1072.02 50.0458H1074.45L1069.39 42.6902H1066.97Z" fill="#FFB901"/>
<path d="M1127.23 130.509L1136.77 144.399H1139.52L1129.95 130.509H1127.23Z" fill="#FFB901"/>
<path d="M1042.64 7.21899L1046.27 12.521H1048.58L1044.93 7.21899H1042.64Z" fill="#FFB901"/>
<path d="M1175.69 201.115L1189.84 221.751L1192.86 221.763L1178.64 201.128L1175.69 201.115Z" fill="#FFB901"/>
<path d="M1537.67 728.69L1618.11 845.931H1623.31L1542.46 728.69H1537.67Z" fill="#FFB901"/>
<path d="M1333.69 431.416L1369.64 483.814H1373.58L1337.45 431.416H1333.69Z" fill="#FFB901"/>
<path d="M1273.23 343.286L1299.59 381.72H1303.18L1276.69 343.299L1273.23 343.286Z" fill="#FFB901"/>
<path d="M1621.6 851.034L1726.2 1003.47H1731.95L1626.83 851.034H1621.6Z" fill="#FFB901"/>
<path d="M1056.38 27.2444L1060.78 33.6665H1063.16L1058.73 27.2444H1056.38Z" fill="#FFB901"/>
<path d="M1470.96 631.474L1534.71 724.383H1539.48L1475.41 631.474H1470.96Z" fill="#FFB901"/>
<path d="M1416.68 552.367L1468.41 627.753H1472.85L1420.86 552.367H1416.68Z" fill="#FFB901"/>
<path d="M1085.64 69.8969L1091.93 79.0571H1094.46L1088.14 69.8969H1085.64Z" fill="#FFB901"/>
<path d="M1061.51 34.7244L1066.23 41.5946H1068.63L1063.9 34.7244H1061.51Z" fill="#FFB901"/>
<path d="M1736.26 1009.71H1730.48L1762.97 1057.07H1764V1049.96L1736.26 1009.71Z" fill="#FFB901"/>
<path d="M1371.65 486.739L1414.43 549.094H1418.6L1375.61 486.739H1371.65Z" fill="#FFB901"/>
<path d="M1079.01 60.2138L1084.83 68.7144H1087.33L1081.47 60.2138H1079.01Z" fill="#FFB901"/>
<path d="M1117.56 116.433L1126.29 129.128H1128.99L1120.24 116.433H1117.56Z" fill="#FFB901"/>
<path d="M1046.96 13.5168L1050.83 19.1673H1053.16L1049.26 13.5168H1046.96Z" fill="#FFB901"/>
<path d="M1191.02 223.481L1206.84 246.543H1209.96L1194.06 223.481H1191.02Z" fill="#FFB901"/>
<path d="M1100.42 91.416L1107.77 102.144H1110.39L1102.99 91.416H1100.42Z" fill="#FFB901"/>
<path d="M1227.21 276.227L1247.34 305.55H1250.66L1230.44 276.227H1227.21Z" fill="#FFB901"/>
<path d="M1192.81 116.458L1204.39 129.153H1207.14L1195.52 116.458H1192.81Z" fill="#FFB901"/>
<path d="M1750.68 728.814L1764 743.426V738.049L1755.55 728.814H1750.68Z" fill="#FFB901"/>
<path d="M1662.1 631.573L1746.76 724.508H1751.62L1666.62 631.573H1662.1Z" fill="#FFB901"/>
<path d="M1118.38 34.7369L1124.64 41.6196H1127.07L1120.79 34.7494L1118.38 34.7369Z" fill="#FFB901"/>
<path d="M1205.64 130.534L1218.3 144.424H1221.1L1208.4 130.534H1205.64Z" fill="#FFB901"/>
<path d="M1269.98 201.165L1288.79 221.788L1291.86 221.8L1272.98 201.165H1269.98Z" fill="#FFB901"/>
<path d="M1219.61 145.867L1233.49 161.101H1236.35L1222.41 145.867H1219.61Z" fill="#FFB901"/>
<path d="M1290.35 223.518L1311.36 246.581H1314.52L1293.44 223.518H1290.35Z" fill="#FFB901"/>
<path d="M1251.57 180.953L1268.48 199.51H1271.48L1254.51 180.953H1251.57Z" fill="#FFB901"/>
<path d="M1590.02 552.454L1658.71 627.852L1663.22 627.864L1594.26 552.454H1590.02Z" fill="#FFB901"/>
<path d="M1530.23 486.814L1587.03 549.181H1591.26L1534.23 486.814H1530.23Z" fill="#FFB901"/>
<path d="M1234.86 162.595L1250.14 179.384H1253.07L1237.72 162.607L1234.86 162.595Z" fill="#FFB901"/>
<path d="M1436.75 384.209L1477.39 428.828H1481.2L1440.39 384.209H1436.75Z" fill="#FFB901"/>
<path d="M1479.81 431.479L1527.55 483.889H1531.56L1483.63 431.479H1479.81Z" fill="#FFB901"/>
<path d="M1150.41 69.9094L1158.76 79.0821H1161.34L1152.95 69.9094H1150.41Z" fill="#FFB901"/>
<path d="M1125.63 42.7025L1132.34 50.0706H1134.8L1128.07 42.7025H1125.63Z" fill="#FFB901"/>
<path d="M1159.87 80.2894L1168.89 90.1964H1171.51L1162.45 80.2894H1159.87Z" fill="#FFB901"/>
<path d="M1141.6 60.2389L1149.34 68.7395H1151.88L1144.1 60.2389H1141.6Z" fill="#FFB901"/>
<path d="M1099.06 13.5411L1104.2 19.1792H1106.56L1101.4 13.5411H1099.06Z" fill="#FFB901"/>
<path d="M1093.32 7.23132L1098.15 12.5333H1100.47L1095.63 7.23132H1093.32Z" fill="#FFB901"/>
<path d="M1313.03 248.41L1336.64 274.335H1339.9L1316.21 248.41H1313.03Z" fill="#FFB901"/>
<path d="M1180.98 103.464L1191.6 115.126H1194.3L1183.64 103.464H1180.98Z" fill="#FFB901"/>
<path d="M1087.88 1.26968L1092.42 6.26054H1094.74L1090.17 1.26968H1087.88Z" fill="#FFB901"/>
<path d="M1170.03 91.4411L1179.81 102.17H1182.46L1172.64 91.4411H1170.03Z" fill="#FFB901"/>
<path d="M1399.52 343.349L1434.53 381.782H1438.17L1403.03 343.349H1399.52Z" fill="#FFB901"/>
<path d="M1367.02 307.678L1397.48 341.108H1400.97L1370.41 307.678H1367.02Z" fill="#FFB901"/>
<path d="M1111.55 27.2569L1117.4 33.6791H1119.82L1113.94 27.2569H1111.55Z" fill="#FFB901"/>
<path d="M1105.12 20.2L1110.61 26.2114H1112.98L1107.48 20.2H1105.12Z" fill="#FFB901"/>
<path d="M1338.42 276.277L1365.13 305.6H1368.5L1341.68 276.277H1338.42Z" fill="#FFB901"/>
<path d="M1133.36 51.1782L1140.55 59.0939H1143.05L1135.82 51.1907L1133.36 51.1782Z" fill="#FFB901"/>
<path d="M1158.71 20.2125L1165.55 26.2239L1167.97 26.2364L1161.11 20.2125H1158.71Z" fill="#FFB901"/>
<path d="M1320.47 162.632L1339.54 179.409L1342.53 179.422L1323.4 162.632H1320.47Z" fill="#FFB901"/>
<path d="M1364.28 201.19L1387.72 221.826L1390.86 221.838L1367.33 201.19H1364.28Z" fill="#FFB901"/>
<path d="M1389.69 223.568L1415.88 246.618H1419.11L1392.82 223.568H1389.69Z" fill="#FFB901"/>
<path d="M1417.96 248.448L1447.41 274.373H1450.72L1421.19 248.46L1417.96 248.448Z" fill="#FFB901"/>
<path d="M1166.73 27.2692L1174.02 33.6914H1176.48L1169.15 27.2692H1166.73Z" fill="#FFB901"/>
<path d="M1341.32 180.977L1362.42 199.547H1365.47L1344.31 180.977H1341.32Z" fill="#FFB901"/>
<path d="M1301.46 145.893L1318.78 161.126H1321.68L1304.32 145.893H1301.46Z" fill="#FFB901"/>
<path d="M1572.22 384.259L1622.91 428.89L1626.79 428.902L1575.94 384.271L1572.22 384.259Z" fill="#FFB901"/>
<path d="M1625.94 431.541L1685.47 483.963H1689.54L1629.82 431.553L1625.94 431.541Z" fill="#FFB901"/>
<path d="M1193.91 51.2031L1202.89 59.1063H1205.43L1196.42 51.2031H1193.91Z" fill="#FFB901"/>
<path d="M1253.3 103.489L1266.55 115.151H1269.29L1256.01 103.489H1253.3Z" fill="#FFB901"/>
<path d="M1137.21 1.28226L1142.87 6.27311H1145.23L1139.54 1.28226H1137.21Z" fill="#FFB901"/>
<path d="M1485.3 307.728L1523.27 341.158L1526.83 341.17L1488.73 307.728H1485.3Z" fill="#FFB901"/>
<path d="M1184.28 42.7276L1192.64 50.0832H1195.15L1186.76 42.7276H1184.28Z" fill="#FFB901"/>
<path d="M1143.99 7.25641L1150.01 12.5584H1152.39L1146.34 7.25641H1143.99Z" fill="#FFB901"/>
<path d="M1525.81 343.398L1569.47 381.844H1573.18L1529.38 343.41L1525.81 343.398Z" fill="#FFB901"/>
<path d="M1226.98 80.3145L1238.23 90.2091H1240.88L1229.59 80.3145H1226.98Z" fill="#FFB901"/>
<path d="M1215.18 69.9342L1225.6 79.0945H1228.21L1217.77 69.9342H1215.18Z" fill="#FFB901"/>
<path d="M1764 553.101V552.541H1763.38L1764 553.101Z" fill="#FFB901"/>
<path d="M1239.64 91.466L1251.83 102.194H1254.53L1242.3 91.466H1239.64Z" fill="#FFB901"/>
<path d="M1688.8 486.888L1759.64 549.268H1763.95L1692.88 486.888H1688.8Z" fill="#FFB901"/>
<path d="M1204.19 60.2512L1213.85 68.7518H1216.42L1206.74 60.2512H1204.19Z" fill="#FFB901"/>
<path d="M1449.61 276.314L1482.93 305.649H1486.37L1452.94 276.314H1449.61Z" fill="#FFB901"/>
<path d="M1151.14 13.5537L1157.55 19.1918H1159.96L1153.52 13.5537H1151.14Z" fill="#FFB901"/>
<path d="M1175.24 34.7616L1183.04 41.6318H1185.52L1177.69 34.7616H1175.24Z" fill="#FFB901"/>
<path d="M1284.05 130.559L1299.84 144.461H1302.69L1286.86 130.571L1284.05 130.559Z" fill="#FFB901"/>
<path d="M1268.05 116.482L1282.49 129.177H1285.29L1270.8 116.482H1268.05Z" fill="#FFB901"/>
<path d="M1458.59 201.227L1486.66 221.863H1489.86L1461.7 201.227H1458.59Z" fill="#FFB901"/>
<path d="M1652.11 343.46L1704.42 381.906H1708.2L1655.76 343.46H1652.11Z" fill="#FFB901"/>
<path d="M1362.46 130.584L1381.37 144.486H1384.28L1365.33 130.596L1362.46 130.584Z" fill="#FFB901"/>
<path d="M1194.65 7.26871L1201.87 12.5707H1204.3L1197.07 7.26871H1194.65Z" fill="#FFB901"/>
<path d="M1383.33 145.917L1404.06 161.164H1407.04L1386.25 145.917H1383.33Z" fill="#FFB901"/>
<path d="M1221.9 27.2943L1230.65 33.7165H1233.15L1224.39 27.2943H1221.9Z" fill="#FFB901"/>
<path d="M1707.73 384.321L1764 425.679V422.792L1711.51 384.321H1707.73Z" fill="#FFB901"/>
<path d="M1522.91 248.497L1558.18 274.422H1561.56L1526.19 248.497H1522.91Z" fill="#FFB901"/>
<path d="M1242.93 42.7399L1252.95 50.108H1255.52L1245.47 42.7399H1242.93Z" fill="#FFB901"/>
<path d="M1186.54 1.29456L1193.32 6.28541H1195.72L1188.92 1.29456H1186.54Z" fill="#FFB901"/>
<path d="M1325.61 103.514L1341.48 115.163H1344.28L1328.38 103.514H1325.61Z" fill="#FFB901"/>
<path d="M1406.1 162.657L1428.95 179.447H1431.99L1409.07 162.657H1406.1Z" fill="#FFB901"/>
<path d="M1254.47 51.2154L1265.22 59.1311H1267.83L1257.03 51.2154H1254.47Z" fill="#FFB901"/>
<path d="M1212.31 20.2251L1220.48 26.2489H1222.97L1214.76 20.2251H1212.31Z" fill="#FFB901"/>
<path d="M1489.03 223.605L1520.41 246.668H1523.69L1492.23 223.605H1489.03Z" fill="#FFB901"/>
<path d="M1343.3 116.507L1360.59 129.202H1363.44L1346.11 116.507H1343.3Z" fill="#FFB901"/>
<path d="M1603.57 307.778L1649.06 341.22H1652.69L1607.08 307.778H1603.57Z" fill="#FFB901"/>
<path d="M1560.83 276.364L1600.73 305.699H1604.24L1564.22 276.364H1560.83Z" fill="#FFB901"/>
<path d="M1431.08 181.015L1456.35 199.584H1459.46L1434.13 181.015H1431.08Z" fill="#FFB901"/>
<path d="M1266.79 60.2763L1278.35 68.7769H1280.99L1269.38 60.2763H1266.79Z" fill="#FFB901"/>
<path d="M1232.09 34.7744L1241.45 41.657H1243.98L1234.61 34.7744H1232.09Z" fill="#FFB901"/>
<path d="M1294.07 80.3268L1307.57 90.2338H1310.27L1296.75 80.3268H1294.07Z" fill="#FFB901"/>
<path d="M1279.96 69.9466L1292.43 79.1193H1295.11L1282.6 69.9466H1279.96Z" fill="#FFB901"/>
<path d="M1309.26 91.4783L1323.86 102.219H1326.62L1311.97 91.4907L1309.26 91.4783Z" fill="#FFB901"/>
<path d="M1203.23 13.566L1210.91 19.2041H1213.36L1205.67 13.566H1203.23Z" fill="#FFB901"/>
<path d="M1361.18 80.3516L1376.89 90.2587H1379.67L1363.92 80.3516H1361.18Z" fill="#FFB901"/>
<path d="M1418.54 116.532L1438.69 129.239H1441.61L1421.41 116.532H1418.54Z" fill="#FFB901"/>
<path d="M1378.87 91.5034L1395.9 102.244H1398.71L1381.65 91.5034H1378.87Z" fill="#FFB901"/>
<path d="M1235.87 1.3071L1243.77 6.29795H1246.23L1238.3 1.3071H1235.87Z" fill="#FFB901"/>
<path d="M1315.02 51.2402L1327.57 59.1435H1330.22L1317.65 51.2402H1315.02Z" fill="#FFB901"/>
<path d="M1397.93 103.526L1416.42 115.188L1419.29 115.2L1400.76 103.538L1397.93 103.526Z" fill="#FFB901"/>
<path d="M1245.32 7.28128L1253.74 12.5833H1256.21L1247.79 7.28128H1245.32Z" fill="#FFB901"/>
<path d="M1329.37 60.2886L1342.86 68.7892L1345.55 68.8017L1332.03 60.2886H1329.37Z" fill="#FFB901"/>
<path d="M1721.84 307.828L1764 334.412V332.097L1725.44 307.828H1721.84Z" fill="#FFB901"/>
<path d="M1301.58 42.7522L1313.25 50.1203H1315.88L1304.18 42.7647L1301.58 42.7522Z" fill="#FFB901"/>
<path d="M1440.88 130.621L1462.9 144.511H1465.89L1443.8 130.621H1440.88Z" fill="#FFB901"/>
<path d="M1491.73 162.694L1518.35 179.484H1521.46L1494.78 162.694H1491.73Z" fill="#FFB901"/>
<path d="M1627.84 248.535L1668.95 274.46H1672.41L1631.2 248.535H1627.84Z" fill="#FFB901"/>
<path d="M1265.89 20.2497L1275.43 26.2611H1277.96L1268.4 20.2497H1265.89Z" fill="#FFB901"/>
<path d="M1552.89 201.265L1585.61 221.9H1588.88L1556.07 201.265H1552.89Z" fill="#FFB901"/>
<path d="M1465.18 145.955L1489.35 161.189H1492.39L1468.17 145.955H1465.18Z" fill="#FFB901"/>
<path d="M1520.84 181.052L1550.28 199.622H1553.46L1523.95 181.052H1520.84Z" fill="#FFB901"/>
<path d="M1588.36 223.642L1624.93 246.705H1628.3L1591.63 223.642H1588.36Z" fill="#FFB901"/>
<path d="M1672.04 276.414L1718.55 305.749H1722.13L1675.51 276.414H1672.04Z" fill="#FFB901"/>
<path d="M1255.32 13.5788L1264.27 19.2293H1266.78L1257.81 13.5788H1255.32Z" fill="#FFB901"/>
<path d="M1288.95 34.7992L1299.85 41.6694H1302.44L1291.52 34.7992H1288.95Z" fill="#FFB901"/>
<path d="M1277.07 27.3066L1287.27 33.7288H1289.83L1279.61 27.3066H1277.07Z" fill="#FFB901"/>
<path d="M1344.73 69.9716L1359.27 79.1444H1361.99L1347.42 69.9716H1344.73Z" fill="#FFB901"/>
<path d="M1295.99 7.29358L1305.6 12.5956H1308.14L1298.52 7.29358H1295.99Z" fill="#FFB901"/>
<path d="M1332.25 27.3192L1343.88 33.7414H1346.51L1334.86 27.3192H1332.25Z" fill="#FFB901"/>
<path d="M1285.19 1.3194L1294.22 6.31025H1296.74L1287.69 1.33184L1285.19 1.3194Z" fill="#FFB901"/>
<path d="M1732.79 248.572L1764 265.822V263.881L1736.25 248.572H1732.79Z" fill="#FFB901"/>
<path d="M1428.29 80.3767L1446.23 90.2838H1449.08L1431.09 80.3767H1428.29Z" fill="#FFB901"/>
<path d="M1687.71 223.68L1729.47 246.742H1732.92L1691.07 223.68H1687.71Z" fill="#FFB901"/>
<path d="M1375.58 51.2525L1389.9 59.1682H1392.62L1378.27 51.2525H1375.58Z" fill="#FFB901"/>
<path d="M1319.46 20.2625L1330.37 26.2739H1332.97L1322.04 20.2625H1319.46Z" fill="#FFB901"/>
<path d="M1610.6 181.077L1644.22 199.647L1647.49 199.659L1613.79 181.077H1610.6Z" fill="#FFB901"/>
<path d="M1307.4 13.5911L1317.62 19.2416H1320.2L1309.96 13.6035L1307.4 13.5911Z" fill="#FFB901"/>
<path d="M1547.05 145.979L1574.65 161.213L1577.77 161.226L1550.11 145.979H1547.05Z" fill="#FFB901"/>
<path d="M1345.81 34.8115L1358.26 41.6817H1360.92L1348.44 34.8115H1345.81Z" fill="#FFB901"/>
<path d="M1409.5 69.9965L1426.1 79.1568H1428.9L1412.26 69.9965H1409.5Z" fill="#FFB901"/>
<path d="M1360.23 42.7771L1373.57 50.1451H1376.26L1362.89 42.7771H1360.23Z" fill="#FFB901"/>
<path d="M1448.49 91.5282L1467.92 102.269H1470.81L1451.34 91.5282H1448.49Z" fill="#FFB901"/>
<path d="M1391.97 60.3135L1407.37 68.8141H1410.13L1394.7 60.3135H1391.97Z" fill="#FFB901"/>
<path d="M1647.19 201.302L1684.57 221.937H1687.92L1650.47 201.302H1647.19Z" fill="#FFB901"/>
<path d="M1577.36 162.719L1607.76 179.509H1610.95L1580.48 162.719H1577.36Z" fill="#FFB901"/>
<path d="M1493.79 116.557L1516.79 129.264H1519.79L1496.74 116.557H1493.79Z" fill="#FFB901"/>
<path d="M1470.26 103.551L1491.37 115.225H1494.31L1473.15 103.551H1470.26Z" fill="#FFB901"/>
<path d="M1519.3 130.646L1544.45 144.536H1547.5L1522.3 130.646H1519.3Z" fill="#FFB901"/>
<path d="M1436.13 51.2776L1452.23 59.1809H1455.04L1438.91 51.2776H1436.13Z" fill="#FFB901"/>
<path d="M1387.42 27.3315L1400.5 33.7661H1403.2L1390.09 27.3315H1387.42Z" fill="#FFB901"/>
<path d="M1495.4 80.389L1515.56 90.3085H1518.49L1498.29 80.4015L1495.4 80.389Z" fill="#FFB901"/>
<path d="M1700.36 181.115L1738.16 199.684H1741.52L1703.65 181.115H1700.36Z" fill="#FFB901"/>
<path d="M1518.1 91.5531L1539.96 102.294H1542.92L1521.03 91.5531H1518.1Z" fill="#FFB901"/>
<path d="M1569.03 116.582L1594.89 129.289H1597.97L1572.06 116.582H1569.03Z" fill="#FFB901"/>
<path d="M1418.88 42.7896L1433.87 50.1577H1436.63L1421.61 42.7896H1418.88Z" fill="#FFB901"/>
<path d="M1402.67 34.8241L1416.66 41.7067H1419.39L1405.37 34.8241H1402.67Z" fill="#FFB901"/>
<path d="M1474.27 70.0088L1492.93 79.1815H1495.81L1477.1 70.0088H1474.27Z" fill="#FFB901"/>
<path d="M1542.57 103.576L1566.32 115.238H1569.33L1545.55 103.576H1542.57Z" fill="#FFB901"/>
<path d="M1597.71 130.671L1625.99 144.573H1629.14L1600.8 130.671H1597.71Z" fill="#FFB901"/>
<path d="M1359.49 13.616L1370.98 19.254H1373.62L1362.11 13.616H1359.49Z" fill="#FFB901"/>
<path d="M1662.99 162.744L1697.16 179.546H1700.45L1666.2 162.744H1662.99Z" fill="#FFB901"/>
<path d="M1741.51 201.327L1764 212.379V210.711L1744.87 201.327H1741.51Z" fill="#FFB901"/>
<path d="M1454.56 60.3258L1471.88 68.8389H1474.71L1457.36 60.3258H1454.56Z" fill="#FFB901"/>
<path d="M1346.66 7.30588L1357.45 12.6079H1360.08L1349.26 7.30588H1346.66Z" fill="#FFB901"/>
<path d="M1373.06 20.2748L1385.3 26.2987H1387.97L1375.7 20.2748H1373.06Z" fill="#FFB901"/>
<path d="M1628.92 146.005L1659.94 161.251H1663.15L1632.06 146.005H1628.92Z" fill="#FFB901"/>
<path d="M1334.51 1.34451L1344.67 6.32292H1347.26L1337.09 1.34451H1334.51Z" fill="#FFB901"/>
<path d="M1539.04 70.0339L1559.76 79.2066H1562.74L1541.96 70.0339H1539.04Z" fill="#FFB901"/>
<path d="M1676.12 130.696L1707.53 144.598H1710.77L1679.31 130.696H1676.12Z" fill="#FFB901"/>
<path d="M1397.33 7.31842L1409.31 12.6204H1412.01L1400 7.31842H1397.33Z" fill="#FFB901"/>
<path d="M1710.78 146.029L1745.24 161.276L1748.54 161.288L1714.02 146.029H1710.78Z" fill="#FFB901"/>
<path d="M1383.83 1.35681L1395.11 6.33522L1397.79 6.34767L1386.48 1.35681H1383.83Z" fill="#FFB901"/>
<path d="M1496.7 51.2902L1514.57 59.2059H1517.46L1499.55 51.2902H1496.7Z" fill="#FFB901"/>
<path d="M1459.52 34.8489L1475.06 41.7191H1477.88L1462.31 34.8489H1459.52Z" fill="#FFB901"/>
<path d="M1644.28 116.607L1673.01 129.314H1676.17L1647.39 116.607H1644.28Z" fill="#FFB901"/>
<path d="M1477.53 42.8142L1494.17 50.1823H1497.02L1480.34 42.8142H1477.53Z" fill="#FFB901"/>
<path d="M1411.58 13.6285L1424.34 19.2666H1427.05L1414.28 13.6285H1411.58Z" fill="#FFB901"/>
<path d="M1587.71 91.5779L1611.98 102.306L1615.04 102.319L1590.74 91.5779H1587.71Z" fill="#FFB901"/>
<path d="M1562.5 80.4142L1584.9 90.3212L1587.91 90.3336L1565.47 80.4142H1562.5Z" fill="#FFB901"/>
<path d="M1442.59 27.3566L1457.12 33.7787H1459.89L1445.34 27.3566H1442.59Z" fill="#FFB901"/>
<path d="M1748.63 162.782L1764 169.577V168.109L1751.93 162.782H1748.63Z" fill="#FFB901"/>
<path d="M1517.16 60.3509L1536.38 68.8515H1539.31L1520.05 60.3509H1517.16Z" fill="#FFB901"/>
<path d="M1426.64 20.2873L1440.24 26.3112H1442.99L1429.36 20.2873H1426.64Z" fill="#FFB901"/>
<path d="M1614.9 103.601L1641.26 115.263L1644.38 115.275L1617.96 103.601H1614.9Z" fill="#FFB901"/>
<path d="M1480.22 20.3119L1495.18 26.3233H1498.02L1483.03 20.3119H1480.22Z" fill="#FFB901"/>
<path d="M1433.16 1.36935L1445.55 6.36021H1448.31L1435.9 1.36935H1433.16Z" fill="#FFB901"/>
<path d="M1629.61 80.4388L1654.24 90.3458H1657.34L1632.67 80.4388H1629.61Z" fill="#FFB901"/>
<path d="M1497.77 27.3689L1513.73 33.8035H1516.6L1500.6 27.3689H1497.77Z" fill="#FFB901"/>
<path d="M1557.25 51.3151L1576.9 59.2183H1579.87L1560.2 51.3151H1557.25Z" fill="#FFB901"/>
<path d="M1603.82 70.0588L1626.59 79.2315H1629.66L1606.83 70.0588H1603.82Z" fill="#FFB901"/>
<path d="M1516.38 34.8615L1533.46 41.7441H1536.36L1519.25 34.8615H1516.38Z" fill="#FFB901"/>
<path d="M1687.22 103.626L1716.21 115.288L1719.42 115.3L1690.38 103.626H1687.22Z" fill="#FFB901"/>
<path d="M1463.65 13.6411L1477.68 19.2915H1480.49L1466.44 13.6411H1463.65Z" fill="#FFB901"/>
<path d="M1754.54 130.721L1764 134.529V133.21L1757.81 130.721H1754.54Z" fill="#FFB901"/>
<path d="M1579.75 60.3634L1600.89 68.8765H1603.91L1582.72 60.3759L1579.75 60.3634Z" fill="#FFB901"/>
<path d="M1448 7.33072L1461.18 12.6452H1463.95L1450.75 7.33072H1448Z" fill="#FFB901"/>
<path d="M1536.17 42.8268L1554.48 50.1948H1557.41L1539.07 42.8268H1536.17Z" fill="#FFB901"/>
<path d="M1657.34 91.5907L1684.02 102.332H1687.17L1660.45 91.6032L1657.34 91.5907Z" fill="#FFB901"/>
<path d="M1719.53 116.632L1751.1 129.339H1754.38L1722.74 116.632H1719.53Z" fill="#FFB901"/>
<path d="M1552.94 27.3815L1570.35 33.8161H1573.31L1555.86 27.3815H1552.94Z" fill="#FFB901"/>
<path d="M1759.54 103.651L1764 105.293V104.086L1762.8 103.651H1759.54Z" fill="#FFB901"/>
<path d="M1668.59 70.0713L1693.44 79.244H1696.59L1671.7 70.0713H1668.59Z" fill="#FFB901"/>
<path d="M1594.82 42.8519L1614.78 50.2075L1617.81 50.2199L1597.82 42.8519H1594.82Z" fill="#FFB901"/>
<path d="M1696.71 80.4634L1723.57 90.3704H1726.77L1699.88 80.4634H1696.71Z" fill="#FFB901"/>
<path d="M1617.81 51.3276L1639.24 59.2433H1642.3L1620.85 51.3276H1617.81Z" fill="#FFB901"/>
<path d="M1726.96 91.6154L1756.06 102.356H1759.31L1730.16 91.6154H1726.96Z" fill="#FFB901"/>
<path d="M1573.24 34.874L1591.87 41.7567H1594.86L1576.2 34.874H1573.24Z" fill="#FFB901"/>
<path d="M1642.34 60.388L1665.4 68.9011H1668.5L1645.41 60.388H1642.34Z" fill="#FFB901"/>
<path d="M1482.48 1.38165L1496 6.37251H1498.84L1485.3 1.38165H1482.48Z" fill="#FFB901"/>
<path d="M1515.74 13.6534L1531.03 19.3039H1533.93L1518.61 13.6534H1515.74Z" fill="#FFB901"/>
<path d="M1533.8 20.3247L1550.11 26.3486H1553.04L1536.7 20.3247H1533.8Z" fill="#FFB901"/>
<path d="M1498.66 7.35559L1513.03 12.6576H1515.9L1501.5 7.35559H1498.66Z" fill="#FFB901"/>
<path d="M1704.94 60.4008L1729.91 68.9139H1733.11L1708.1 60.4133L1704.94 60.4008Z" fill="#FFB901"/>
<path d="M1733.36 70.0962L1760.28 79.2689H1763.52L1736.57 70.0962H1733.36Z" fill="#FFB901"/>
<path d="M1608.11 27.4063L1626.97 33.8285H1630.02L1611.12 27.4063H1608.11Z" fill="#FFB901"/>
<path d="M1531.8 1.39423L1546.44 6.38508H1549.38L1534.72 1.39423H1531.8Z" fill="#FFB901"/>
<path d="M1549.33 7.36789L1564.89 12.6699H1567.84L1552.25 7.36789H1549.33Z" fill="#FFB901"/>
<path d="M1567.82 13.6657L1584.39 19.3162H1587.38L1570.79 13.6657H1567.82Z" fill="#FFB901"/>
<path d="M1587.38 20.337L1605.05 26.3609H1608.06L1590.38 20.337H1587.38Z" fill="#FFB901"/>
<path d="M1653.46 42.8642L1675.08 50.2322H1678.21L1656.56 42.8642H1653.46Z" fill="#FFB901"/>
<path d="M1764 80.5383V80.4762H1763.82L1764 80.5383Z" fill="#FFB901"/>
<path d="M1678.37 51.3524L1701.57 59.2557L1704.74 59.2681L1681.49 51.3524H1678.37Z" fill="#FFB901"/>
<path d="M1630.09 34.8989L1650.27 41.7691H1653.36L1633.16 34.8989H1630.09Z" fill="#FFB901"/>
<path d="M1599.98 7.38068L1616.75 12.6827H1619.8L1603.01 7.38068H1599.98Z" fill="#FFB901"/>
<path d="M1738.92 51.365L1763.91 59.2807H1764V58.2725L1742.16 51.365H1738.92Z" fill="#FFB901"/>
<path d="M1712.12 42.8765L1735.4 50.2445L1738.62 50.257L1715.31 42.8765H1712.12Z" fill="#FFB901"/>
<path d="M1581.13 1.40652L1596.89 6.39738H1599.91L1584.13 1.40652H1581.13Z" fill="#FFB901"/>
<path d="M1619.91 13.6908L1637.75 19.3288L1640.83 19.3413L1622.96 13.6908H1619.91Z" fill="#FFB901"/>
<path d="M1686.95 34.9112L1708.68 41.7938H1711.86L1690.11 34.9112H1686.95Z" fill="#FFB901"/>
<path d="M1663.27 27.4189L1683.59 33.8534H1686.73L1666.4 27.4189H1663.27Z" fill="#FFB901"/>
<path d="M1640.97 20.3496L1659.99 26.3735H1663.1L1644.06 20.362L1640.97 20.3496Z" fill="#FFB901"/>
<path d="M1671.99 13.7033L1691.1 19.3414L1694.29 19.3538L1675.15 13.7033H1671.99Z" fill="#FFB901"/>
<path d="M1650.65 7.39301L1668.6 12.695H1671.76L1653.79 7.39301H1650.65Z" fill="#FFB901"/>
<path d="M1718.45 27.4312L1740.2 33.8658H1743.47L1721.67 27.4312H1718.45Z" fill="#FFB901"/>
<path d="M1630.45 1.41882L1647.34 6.40968H1650.45L1633.55 1.41882H1630.45Z" fill="#FFB901"/>
<path d="M1694.55 20.3745L1714.92 26.3859H1718.15L1697.74 20.3745H1694.55Z" fill="#FFB901"/>
<path d="M1743.81 34.924L1764 40.8981V39.9273L1747.07 34.9364L1743.81 34.924Z" fill="#FFB901"/>
<path d="M1701.32 7.40555L1720.46 12.7076L1723.73 12.72L1704.56 7.40555H1701.32Z" fill="#FFB901"/>
<path d="M1679.78 1.43137L1697.79 6.42222L1701.01 6.43467L1682.98 1.44381L1679.78 1.43137Z" fill="#FFB901"/>
<path d="M1748.13 20.3867L1764 24.7802V23.8716L1751.43 20.3867H1748.13Z" fill="#FFB901"/>
<path d="M1724.07 13.7156L1744.46 19.3661H1747.74L1727.33 13.7156H1724.07Z" fill="#FFB901"/>
<path d="M1729.1 1.45624L1748.23 6.44709H1751.57L1732.4 1.45624H1729.1Z" fill="#FFB901"/>
<path d="M1751.99 7.41785L1764 10.5542V9.68302L1755.32 7.41785H1751.99Z" fill="#FFB901"/>
<path d="M5.53848 0.970789L51.4892 0.983236H54.7998L100.85 0.995682H104.049L150.211 1.00813H153.31L199.572 1.02057H202.571L248.933 1.03302H251.833L298.294 1.04547H301.107L347.655 1.05791H350.38L397.016 1.07036H399.654L446.364 1.09525H448.94L495.725 1.1077H498.227L545.086 1.12014H547.525L594.447 1.13259H596.824L643.795 1.14503H646.135L693.144 1.15748H695.446L742.492 1.16993H744.757L791.841 1.18237H794.081L841.189 1.19482H843.417L890.538 1.21971H892.753L939.874 1.23216H942.101L989.21 1.2446H991.45L1038.55 1.25705H1040.81L1087.88 1.26949H1090.17L1137.21 1.28194H1139.55L1186.54 1.29439H1188.92L1235.86 1.30683H1238.3L1285.19 1.31928L1287.69 1.33172L1334.51 1.34417H1337.09L1383.84 1.35662H1386.49L1433.16 1.36906H1435.9L1482.48 1.38151H1485.3L1531.81 1.39395H1534.72L1581.13 1.4064H1584.13L1630.45 1.41885H1633.55L1679.78 1.43129L1682.98 1.44374L1729.1 1.45618H1732.4H1764V0.497841L1728.7 0.485395H1725.4L1679.49 0.472949H1676.29L1630.28 0.460503H1627.19L1581.08 0.448057H1578.08L1531.88 0.435611H1528.98L1482.68 0.423165H1479.87L1433.5 0.410719L1430.77 0.398273L1384.31 0.385827H1381.66L1335.12 0.373381H1332.56L1285.95 0.360935H1283.45L1236.77 0.348489H1234.33L1187.61 0.336043H1185.22L1138.45 0.323596H1136.11L1089.3 0.31115H1087L1040.15 0.286258H1037.89H991.002L988.762 0.273812L941.865 0.261366H939.65L892.741 0.24892H890.525L843.616 0.236474H841.401L794.504 0.224028H792.264L745.392 0.211582H743.139L696.293 0.199136H694.002L647.205 0.18669H644.866L598.106 0.174244H595.729L549.031 0.149352H546.592L499.944 0.136906H497.455L450.882 0.12446H448.306L401.807 0.112014H399.169L352.745 0.0995682H350.019L303.683 0.0871221H300.883L254.633 0.0746761H251.733L205.583 0.0622301H202.596L156.546 0.0497841H153.447L107.496 0.0373381H104.31L58.459 0.012446H55.1608L9.42164 0H6.02387H0V0.958343L2.14072 0.970789H5.53848Z" fill="#FFB901"/>
<path d="M32.0983 6.93264L79.4554 6.94508H82.6914L130.16 6.95753H133.284L180.866 6.98242H183.89L231.558 6.99487H234.495L282.263 7.00731H285.101L332.968 7.01976H335.719L383.661 7.03221H386.337L434.366 7.04465H436.955L485.071 7.0571H487.585L535.764 7.08199H538.228L586.456 7.09444H588.871L637.162 7.10688H639.514L687.854 7.11933H690.169L738.534 7.13177H740.824L789.227 7.15667H791.492H839.92L842.16 7.16911L890.6 7.18156H892.84L941.28 7.194H943.533L991.96 7.20645H994.225L1042.64 7.2189H1044.93L1093.32 7.23134H1095.64L1143.99 7.25623H1146.34L1194.66 7.26868H1197.07L1245.32 7.28113H1247.79L1295.99 7.29357H1298.52L1346.66 7.30602H1349.26L1397.33 7.31846H1400L1447.99 7.33091H1450.75L1498.66 7.3558H1501.5L1549.33 7.36825H1552.26L1599.99 7.38069H1603.01L1650.65 7.39314H1653.79L1701.32 7.40559H1704.56L1751.99 7.41803H1755.32L1764 7.43048V6.44724H1751.57H1748.23L1701.01 6.4348L1697.79 6.42235L1650.45 6.4099H1647.34L1599.91 6.39746H1596.89L1549.38 6.38501H1546.44L1498.84 6.37257H1496L1448.31 6.36012H1445.56L1397.79 6.34767L1395.11 6.33523L1347.26 6.32278H1344.67L1296.74 6.31034H1294.22L1246.23 6.29789H1243.77L1195.73 6.28544H1193.32L1145.23 6.273H1142.87L1094.74 6.26055H1092.42L1044.25 6.23566H1041.97L993.765 6.22321H991.512L943.296 6.21077H941.056L892.828 6.19832H890.587L842.372 6.18588H840.119L791.915 6.17343H789.663L741.472 6.16098H739.194L691.04 6.13609H688.725L640.597 6.12365H638.244L590.178 6.1112H587.776L539.759 6.09875H537.295L489.34 6.08631H486.814L438.934 6.07386H436.333L388.527 6.06142H385.851L338.121 6.04897L335.383 6.03652L287.727 6.02408H284.902L237.333 6.01163H234.408L186.952 5.99919H183.94L136.57 5.98674H133.459L86.1887 5.97429L82.9776 5.96185H35.8196H32.4966L0 5.9494V6.92019L28.7628 6.93264H32.0983Z" fill="#FFB901"/>
<path d="M8.12725 13.2178L56.8783 13.2302L60.1267 13.2427L108.99 13.2551H112.139L161.101 13.2675H164.163L213.225 13.28H216.175L265.337 13.2924H268.212L317.461 13.3173H320.236L369.572 13.3298H372.273L421.684 13.3422H424.31L473.808 13.3547H476.359L525.919 13.3671H528.408L578.03 13.3796L580.457 13.392L630.142 13.4044H632.519L682.253 13.4169H684.593L734.365 13.4293H736.667L786.464 13.4418H788.754L838.575 13.4667H840.841L890.675 13.4791H892.94L942.774 13.4916H945.039L994.86 13.504H997.15L1046.96 13.5165H1049.26L1099.06 13.5414H1101.4L1151.14 13.5538H1153.52L1203.23 13.5662H1205.67L1255.32 13.5787H1257.81L1307.4 13.5911L1309.96 13.6036L1359.49 13.616H1362.1L1411.58 13.6285H1414.28L1463.65 13.6409H1466.44L1515.74 13.6534H1518.61L1567.83 13.6658H1570.79L1619.91 13.6907H1622.96L1671.99 13.7032H1675.15L1724.07 13.7156H1727.33L1764 13.728V12.7324L1723.72 12.7199L1720.46 12.7075L1671.76 12.695H1668.6L1619.8 12.6826H1616.75L1567.84 12.6701H1564.89L1515.9 12.6577H1513.03L1463.95 12.6452H1461.18L1412.01 12.6203H1409.31L1360.08 12.6079H1357.45L1308.14 12.5955H1305.6L1256.21 12.583H1253.74L1204.3 12.5706H1201.87L1152.39 12.5581H1150.01L1100.48 12.5332H1098.15L1048.58 12.5208H1046.27L996.69 12.5083H994.412L944.802 12.4959H942.537L892.927 12.4834L890.662 12.471L841.052 12.4586H838.787L789.19 12.4461H786.9L737.327 12.4337H735.025L685.477 12.4212H683.137L633.639 12.4088L631.25 12.3963L581.789 12.3839H579.362L529.964 12.3714H527.475L478.139 12.359H475.587L426.314 12.3465H423.7L374.501 12.3341L371.812 12.3216L322.688 12.3092H319.912L270.888 12.2968H268.025L219.087 12.2843H216.138L167.287 12.2719H164.238L115.499 12.2594H112.35L63.7112 12.247L60.4628 12.2345L11.9233 12.2221H8.56286H0V13.2178H4.76683H8.12725Z" fill="#FFB901"/>
<path d="M36.2801 19.8888L86.5994 19.9013H89.7856L140.217 19.9137H143.303L193.822 19.9386H196.809L247.439 19.9511H250.339L301.057 19.9635H303.857L354.674 19.9759L357.387 19.9884L408.279 20.0008H410.93L461.897 20.0133H464.473L515.502 20.0257H518.016L569.119 20.0506H571.571L622.724 20.0631H625.126L676.342 20.0755H678.706L729.947 20.088H732.274L783.552 20.1004L785.854 20.1129L837.144 20.1253H839.434L890.749 20.1377H893.039L944.342 20.1502H946.632L997.934 20.1626H1000.25L1051.54 20.1875H1053.87L1105.12 20.2H1107.48L1158.71 20.2124H1161.11L1212.3 20.2249H1214.76L1265.88 20.2498H1268.4L1319.46 20.2622H1322.04L1373.06 20.2747H1375.7L1426.64 20.2871H1429.36L1480.22 20.312H1483.03L1533.8 20.3244H1536.7L1587.38 20.3369H1590.38L1640.97 20.3493L1644.06 20.3618L1694.55 20.3742H1697.74L1748.13 20.3867H1751.43H1764V19.3661H1747.74H1744.46L1694.29 19.3536L1691.1 19.3412H1640.83L1637.75 19.3288L1587.38 19.3163H1584.39L1533.93 19.3039H1531.03L1480.49 19.2914H1477.68L1427.05 19.2665H1424.33L1373.62 19.2541H1370.98L1320.2 19.2416H1317.62L1266.78 19.2292H1264.27L1213.36 19.2043H1210.91L1159.96 19.1918H1157.55L1106.56 19.1794H1104.2L1053.16 19.167H1050.83L999.776 19.1545L997.474 19.1421L946.395 19.1296H944.105L893.014 19.1172H890.737L839.658 19.1047H837.368L786.302 19.0923H783.987L732.946 19.0674H730.619L679.602 19.0549H677.238L626.271 19.0425H623.857L572.928 19.03H570.488L519.609 19.0052H517.107L466.29 18.9927H463.714L412.971 18.9803H410.333L359.665 18.9678H356.952L306.371 18.9429H303.571L253.065 18.9305H250.177L199.771 18.918H196.796L146.49 18.9056H143.415L93.2082 18.8807H90.0221L39.9268 18.8683H36.6411L0 18.8558V19.8764L32.982 19.8888H36.2801Z" fill="#FFB901"/>
<path d="M11.0147 26.9334L62.8897 26.9458H66.1008L118.088 26.9707H121.199L173.286 26.9832H176.298L228.484 26.9956H231.409L283.682 27.0081H286.52L338.88 27.0329H341.631L394.078 27.0454H396.754L449.289 27.0578H451.89L504.474 27.0827H507.013L559.673 27.0952H562.162L614.871 27.1076H617.31L670.069 27.1325H672.458L725.267 27.145H727.619L780.453 27.1574H782.78L835.638 27.1698L837.953 27.1823L890.824 27.1947H893.139L946.01 27.2072H948.324L1001.2 27.2196H1003.52L1056.38 27.2445H1058.73L1111.55 27.257H1113.94L1166.73 27.2694H1169.15L1221.9 27.2943H1224.39L1277.07 27.3068H1279.61L1332.25 27.3192H1334.86L1387.42 27.3316H1390.1L1442.59 27.3565H1445.34L1497.77 27.369H1500.6L1552.94 27.3814H1555.86L1608.11 27.4063H1611.12L1663.27 27.4188H1666.4L1718.45 27.4312H1721.67L1764 27.4437V26.4106L1718.15 26.3858H1714.92L1663.1 26.3733H1659.99L1608.06 26.3609H1605.05L1553.04 26.3484H1550.11L1498.02 26.3235H1495.18L1442.99 26.3111H1440.24L1387.97 26.2986H1385.3L1332.97 26.2737H1330.37L1277.96 26.2613H1275.43L1222.97 26.2488H1220.48L1167.97 26.2364L1165.54 26.224L1112.99 26.2115H1110.61L1058.01 26.1991H1055.66L1003.04 26.1866H1000.71L948.076 26.1617H945.761L893.126 26.1493H890.811L838.177 26.1368H835.862L783.24 26.1244L780.913 26.1119L728.304 26.0995H725.951L673.379 26.087H670.99L618.455 26.0746H616.028L563.543 26.0497H561.067L508.644 26.0373H506.105L453.745 26.0248H451.143L398.845 25.9999H396.182L343.958 25.9875H341.208L289.084 25.975H286.246L234.197 25.9626H231.284L179.335 25.9377H176.31L124.46 25.9252H121.349L69.5981 25.9128H66.3871L14.7361 25.8879H11.4254H0V26.9334H7.69164H11.0147Z" fill="#FFB901"/>
<path d="M40.9723 34.4257L94.6022 34.4382H97.751L151.481 34.4631H154.53L208.371 34.4755H211.321L265.25 34.488H268.112L322.128 34.5129H324.916L379.019 34.5253H381.719L435.897 34.5377H438.536L492.775 34.5626H495.352L549.654 34.5751H552.168L606.544 34.5875H608.996L663.423 34.6124H665.837L720.288 34.6249H722.678L777.167 34.6498H779.532L834.045 34.6622H836.385L890.911 34.6747H893.251L947.777 34.6995H950.129L1004.64 34.712H1007.01L1061.51 34.7244H1063.9L1118.37 34.7369L1120.79 34.7493L1175.24 34.7618H1177.69L1232.09 34.7742H1234.61L1288.95 34.7991H1291.52L1345.81 34.8116H1348.44L1402.67 34.824H1405.37L1459.52 34.8489H1462.31L1516.39 34.8613H1519.25L1573.24 34.8738H1576.2L1630.09 34.8987H1633.15L1686.95 34.9111H1690.11L1743.81 34.9236L1747.07 34.936H1764V33.8657H1743.46H1740.2L1686.73 33.8532H1683.59L1630.02 33.8283H1626.97L1573.31 33.8159H1570.35L1516.6 33.8034H1513.73L1459.89 33.7785H1457.12L1403.2 33.7661H1400.5L1346.51 33.7412H1343.88L1289.83 33.7288H1287.27L1233.15 33.7163H1230.65L1176.48 33.6914H1174.02L1119.82 33.679H1117.4L1063.16 33.6665H1060.79L1006.51 33.6541L1004.16 33.6416L949.868 33.6292H947.528L893.238 33.6167H890.899L836.609 33.5919H834.269L779.992 33.5794H777.64L723.375 33.567H720.998L666.771 33.5421H664.369L610.179 33.5296H607.727L553.587 33.5172H551.085L497.007 33.4923H494.443L440.427 33.4798H437.801L383.86 33.4674H381.159L327.293 33.4425H324.518L270.738 33.4301H267.863L214.184 33.4176H211.221L157.629 33.3927H154.58L101.087 33.3803H97.9377L44.5443 33.3678L41.2959 33.3554H0V34.4133L37.7239 34.4257H40.9723Z" fill="#FFB901"/>
<path d="M14.2631 42.3788L69.6355 42.3912H72.8341L128.306 42.4037H131.393L186.977 42.4286H189.976L245.66 42.441H248.559L304.33 42.4659H307.143L362.988 42.4784H365.726L421.671 42.4908H424.335L480.342 42.5157H482.93L539.012 42.5281H541.551L597.683 42.553H600.16L656.353 42.5655H658.793L715.011 42.5779H717.426L773.682 42.6028H776.059L832.34 42.6153H834.705L890.998 42.6402H893.363L949.669 42.6526H952.033L1008.31 42.665H1010.7L1066.97 42.6899H1069.39L1125.63 42.7024H1128.07L1184.28 42.7273H1186.77L1242.93 42.7397H1245.47L1301.58 42.7522L1304.18 42.7646L1360.23 42.7771H1362.89L1418.88 42.7895H1421.61L1477.53 42.8144H1480.34L1536.17 42.8268H1539.07L1594.82 42.8517H1597.82L1653.47 42.8642H1656.57L1712.12 42.8766H1715.31L1764 42.9015V41.8063L1711.86 41.7938H1708.68L1653.35 41.7689H1650.27L1594.86 41.7565H1591.87L1536.36 41.744H1533.46L1477.88 41.7192H1475.06L1419.39 41.7067H1416.66L1360.92 41.6818H1358.26L1302.44 41.6694H1299.85L1243.98 41.6569H1241.45L1185.52 41.632H1183.04L1127.07 41.6196H1124.63L1068.63 41.5947H1066.23L1010.19 41.5822H1007.82L951.772 41.5698H949.407L893.35 41.5449H890.986L834.941 41.5325H832.576L776.532 41.5076H774.155L718.135 41.4951H715.733L659.751 41.4827H657.312L601.379 41.4578H598.89L542.995 41.4453H540.468L484.636 41.4204H482.047L426.276 41.408H423.613L367.917 41.3956L365.191 41.3831L309.57 41.3707H306.757L251.235 41.3582H248.335L192.901 41.3333H189.914L134.566 41.3209H131.48L76.2443 41.3084H73.0581L17.9223 41.2835H14.6365H0V42.3663H10.9649L14.2631 42.3788Z" fill="#FFB901"/>
<path d="M46.2867 50.8547L103.638 50.8671H106.762L164.213 50.892H167.237L224.788 50.9045H227.725L285.362 50.9294H288.212L345.937 50.9418H348.713L406.512 50.9667H409.213L467.099 50.9791H469.725L527.661 51.004H530.238L588.249 51.0165H590.763L648.823 51.0414H651.288L709.386 51.0538H711.825L769.961 51.0787H772.375L830.535 51.0912H832.925L891.098 51.116H893.487L951.66 51.1285H954.062L1012.22 51.1409H1014.64L1072.8 51.1658H1075.22L1133.36 51.1783L1135.82 51.1907L1193.91 51.2032H1196.42L1254.47 51.2156H1257.04L1315.02 51.2405H1317.65L1375.58 51.253H1378.27L1436.13 51.2778H1438.91L1496.7 51.2903H1499.55L1557.25 51.3152H1560.2L1617.81 51.3276H1620.85L1678.37 51.3525H1681.49L1738.92 51.365H1742.16L1764 51.3774V50.2573H1738.62L1735.4 50.2448L1678.21 50.2324H1675.08L1617.81 50.2199L1614.78 50.2075L1557.41 50.195H1554.48L1497.02 50.1826H1494.17L1436.63 50.1577H1433.87L1376.26 50.1453H1373.57L1315.88 50.1204H1313.25L1255.52 50.1079H1252.95L1195.15 50.083H1192.64L1134.8 50.0706H1132.34L1074.45 50.0457H1072.03L1014.13 50.0332H1011.71L953.801 50.0083H951.399L893.475 49.9959H891.085L833.161 49.9835H830.772L772.86 49.9586H770.446L712.56 49.9461H710.133L652.283 49.9212H649.807L591.995 49.9088H589.481L531.719 49.8839H529.167L471.455 49.8714H468.829L411.204 49.8465H408.516L350.953 49.8341H348.177L290.702 49.8092H287.852L230.463 49.7968H227.526L170.224 49.7719H167.2L109.998 49.7594H106.874L49.7716 49.747L46.5606 49.7345L0 49.7221V50.8422L43.0632 50.8547H46.2867Z" fill="#FFB901"/>
<path d="M17.9472 59.8904L77.2898 59.9028H80.4511L139.906 59.9277H142.967L202.509 59.9402H205.484L265.125 59.9651H268.013L327.729 59.99H330.529L390.345 60.0024H393.07L452.948 60.0273H455.611L515.564 60.0397H518.165L578.167 60.0646H580.719L640.783 60.0771H643.285L703.387 60.102H705.851L765.99 60.1144H768.442L828.594 60.1393H831.033L891.197 60.1518H893.624L953.801 60.1767H956.228L1016.4 60.2015H1018.84L1079.01 60.214H1081.47L1141.6 60.2389H1144.1L1204.19 60.2513H1206.74L1266.79 60.2762H1269.38L1329.37 60.2887H1332.04L1391.98 60.3136H1394.7L1454.57 60.326H1457.37L1517.16 60.3509H1520.04L1579.75 60.3633L1582.72 60.3758L1642.34 60.3882H1645.41L1704.94 60.4007L1708.1 60.4131L1764 60.4256V59.2805H1763.91L1704.74 59.2681L1701.57 59.2556L1642.3 59.2432H1639.24L1579.87 59.2183H1576.9L1517.46 59.2059H1514.57L1455.04 59.181H1452.23L1392.62 59.1685H1389.9L1330.22 59.1436H1327.57L1267.83 59.1312H1265.23L1205.43 59.1063H1202.9L1143.05 59.0938H1140.55L1080.68 59.069H1078.21L1018.31 59.0565L1015.87 59.0441L955.954 59.0316H953.527L893.612 59.0067H891.185L831.27 58.9943H828.843L768.94 58.9694H766.501L706.61 58.9569H704.146L644.293 58.932H641.804L581.988 58.9196H579.449L519.696 58.8947H517.095L457.404 58.8823H454.74L395.111 58.8574H392.386L332.831 58.8449H330.031L270.564 58.82H267.677L208.297 58.8076L205.334 58.7951L146.042 58.7827H142.98L83.7866 58.7703L80.6253 58.7578L21.5316 58.7454H18.2708H0V59.8779L14.6863 59.8904H17.9472Z" fill="#FFB901"/>
<path d="M52.3355 69.5733L113.906 69.5857H117.017L178.688 69.6106H181.699L243.469 69.6355H246.394L308.263 69.6479H311.101L373.045 69.6728H375.808L437.839 69.6853H440.527L502.62 69.7102H505.259L567.402 69.7226L569.99 69.7351L632.183 69.7475H634.722L696.965 69.7724H699.466L761.746 69.7973H764.223L826.528 69.8097H828.992L891.309 69.8346H893.774L956.091 69.8471H958.555L1020.86 69.872H1023.34L1085.64 69.8969H1088.14L1150.41 69.9093H1152.95L1215.18 69.9342H1217.77L1279.96 69.9466H1282.6L1344.73 69.9715H1347.42L1409.5 69.9964H1412.26L1474.27 70.0089H1477.11L1539.04 70.0338H1541.96L1603.82 70.0587H1606.83L1668.59 70.0711H1671.7L1733.36 70.096H1736.57L1764 70.1084V68.9261L1733.11 68.9136H1729.91L1668.5 68.9012H1665.4L1603.91 68.8763H1600.89L1539.31 68.8514H1536.37L1474.72 68.839H1471.88L1410.13 68.8141H1407.37L1345.55 68.8016L1342.86 68.7892L1280.99 68.7767H1278.36L1216.42 68.7518H1213.85L1151.88 68.7394H1149.34L1087.33 68.7145H1084.83L1022.8 68.702L1020.32 68.6896L958.269 68.6772H955.817L893.749 68.6523H891.297L829.241 68.6398H826.777L764.746 68.6149H762.269L700.25 68.6025L697.749 68.59L635.768 68.5776H633.229L571.285 68.5527H568.708L506.814 68.5402H504.188L442.356 68.5154H439.668L377.911 68.4905H375.148L313.465 68.478H310.628L249.02 68.4531H246.108L184.587 68.4407H181.587L120.166 68.4158H117.067L55.7457 68.3909H52.5471L0 68.3784V69.5484L49.1244 69.5733H52.3355Z" fill="#FFB901"/>
<path d="M22.1788 79.9287L86.0393 79.9536H89.1882L153.148 79.966L156.21 79.9784L220.27 79.9909H223.232L287.379 80.0158H290.266L354.5 80.0407H357.3L421.621 80.0531H424.359L488.73 80.078H491.406L555.852 80.1029H558.478L622.973 80.1154H625.549L690.082 80.1402H692.621L757.203 80.1651H759.717L824.312 80.1776H826.814L891.434 80.2025H893.923L958.543 80.2274H961.044L1025.65 80.2523H1028.17L1092.76 80.2647H1095.3L1159.87 80.2896H1162.45L1226.98 80.3145H1229.59L1294.07 80.3269H1296.75L1361.18 80.3518H1363.92L1428.29 80.3767H1431.09L1495.4 80.3892L1498.29 80.4016L1562.5 80.4141H1565.47L1629.61 80.4389H1632.67L1696.72 80.4638H1699.88L1763.83 80.4763H1764V79.269H1763.53H1760.28L1696.59 79.2441H1693.44L1629.66 79.2317H1626.6L1562.73 79.2068H1559.76L1495.81 79.1819H1492.94L1428.9 79.157H1426.1L1361.99 79.1446H1359.27L1295.11 79.1197H1292.43L1228.21 79.0948H1225.6L1161.34 79.0823H1158.76L1094.47 79.0574H1091.93L1027.61 79.0325H1025.09L960.746 79.0201H958.256L893.91 78.9952H891.409L827.063 78.9703H824.574L760.24 78.9579H757.739L693.418 78.933H690.891L626.62 78.9081H624.043L559.822 78.8832H557.196L493.024 78.8707H490.361L426.239 78.8459H423.513L359.466 78.8334L356.666 78.821L292.693 78.8085H289.818L225.933 78.7836H222.97L159.185 78.7587H156.123L92.4366 78.7463H89.2877L25.6886 78.7214H22.4402L0 78.709V79.9287H18.9179H22.1788Z" fill="#FFB901"/>
<path d="M59.2804 91.0923L125.705 91.1047H128.804L195.328 91.1296H198.34L264.951 91.1545H267.876L334.574 91.167H337.424L404.197 91.1919H406.972L473.82 91.2168H476.533L543.443 91.2416H546.106L613.066 91.2665H615.68L682.689 91.279H685.265L752.312 91.3039H754.864L821.935 91.3288H824.474L891.558 91.3537H894.085L961.169 91.3786H963.708L1030.79 91.391L1033.34 91.4034L1100.41 91.4159H1102.99L1170.03 91.4408H1172.64L1239.64 91.4657H1242.3L1309.26 91.4781L1311.97 91.4906L1378.87 91.503H1381.65L1448.49 91.5279H1451.34L1518.1 91.5528H1521.03L1587.71 91.5777H1590.74L1657.34 91.5901L1660.45 91.6026L1726.96 91.615H1730.16L1764 91.6275V90.3829L1726.77 90.3704H1723.57L1657.34 90.3455H1654.24L1587.91 90.3331L1584.9 90.3206L1518.49 90.3082H1515.56L1449.08 90.2833H1446.23L1379.67 90.2584H1376.89L1310.27 90.2335H1307.57L1240.88 90.2086H1238.23L1171.51 90.1962H1168.89L1102.13 90.1713H1099.56L1032.76 90.1464H1030.22L963.409 90.1215H960.882L894.072 90.1091H891.546L824.736 90.0842H822.196L755.411 90.0593H752.86L686.087 90.0344H683.51L616.787 90.0219L614.174 90.0095L547.488 89.997H544.837L478.201 89.9722H475.488L408.914 89.9473H406.139L339.639 89.9224H336.802L270.377 89.9099L267.453 89.8975L201.128 89.885H198.116L131.878 89.8601H128.779L62.6284 89.8352H59.4297L0 89.8228V91.0674L56.0818 91.0799L59.2804 91.0923Z" fill="#FFB901"/>
<path d="M27.0576 103.091L96.1206 103.103H99.2819L168.444 103.128H171.506L240.768 103.153H243.743L313.092 103.178H315.992L385.416 103.203H388.241L457.74 103.228H460.503L530.064 103.253H532.777L602.4 103.265L605.051 103.277L674.724 103.302H677.337L747.047 103.315H749.636L819.371 103.34H821.948L891.695 103.365H894.259L964.019 103.389H966.595L1036.33 103.414H1038.93L1108.65 103.439H1111.28L1180.98 103.464H1183.64L1253.3 103.489H1256L1325.61 103.514H1328.38L1397.94 103.526L1400.76 103.539L1470.26 103.551H1473.15L1542.57 103.576H1545.55L1614.9 103.601H1617.96L1687.22 103.626H1690.38L1759.54 103.651H1762.8H1764V102.369L1759.31 102.356H1756.06L1687.17 102.332H1684.02L1615.05 102.319L1611.98 102.307L1542.92 102.294H1539.96L1470.81 102.269H1467.92L1398.71 102.244H1395.9L1326.62 102.22H1323.86L1254.53 102.195H1251.83L1182.46 102.17H1179.81L1110.38 102.145H1107.77L1038.33 102.132L1035.73 102.12L966.284 102.108H963.708L894.247 102.083H891.67L822.221 102.058H819.645L750.196 102.033H747.607L678.184 102.008H675.57L606.196 101.983H603.545L534.196 101.958H531.507L462.22 101.946H459.47L390.245 101.921H387.432L318.282 101.896H315.395L246.332 101.871H243.357L174.381 101.846H171.319L102.443 101.821H99.2943L30.5052 101.796H27.2568L0 101.784V103.078L23.7968 103.091H27.0576Z" fill="#FFB901"/>
<path d="M67.3579 116.084L139.383 116.109H142.507L214.632 116.134H217.656L289.88 116.159H292.818L365.116 116.184H367.991L440.365 116.209H443.165L515.614 116.233H518.364L590.862 116.258H593.563L666.099 116.271L668.762 116.283L741.347 116.308H743.986L816.596 116.333H819.209L891.844 116.358H894.458L967.081 116.383H969.707L1042.33 116.408H1044.97L1117.57 116.433H1120.24L1192.81 116.457H1195.51L1268.05 116.482H1270.8L1343.3 116.507H1346.11L1418.54 116.532H1421.41L1493.78 116.557H1496.73L1569.03 116.582H1572.06L1644.28 116.607H1647.39L1719.53 116.632H1722.74L1764 116.644V115.312L1719.42 115.3L1716.21 115.288L1644.38 115.275L1641.26 115.263L1569.33 115.238H1566.32L1494.31 115.225H1491.37L1419.29 115.2L1416.42 115.188L1344.28 115.163H1341.48L1269.28 115.151H1266.54L1194.3 115.126H1191.59L1119.32 115.101L1116.66 115.088L1044.35 115.076L1041.71 115.064L969.383 115.051H966.769L894.433 115.026H891.82L819.496 115.001L816.882 114.989L744.571 114.976H741.932L669.646 114.952H666.982L594.745 114.927L592.045 114.914L519.845 114.902L517.095 114.889L444.945 114.877L442.145 114.864L370.07 114.852H367.207L295.195 114.827L292.257 114.815L220.332 114.802H217.308L145.482 114.777H142.37L70.6312 114.752H67.4325L0 114.727V116.059L64.1468 116.084H67.3579Z" fill="#FFB901"/>
<path d="M32.7579 130.136L107.895 130.173H111.056L186.292 130.198H189.379L264.702 130.223H267.701L343.112 130.248H346.037L421.522 130.272H424.384L499.932 130.297H502.732L578.354 130.322H581.105L656.764 130.347H659.477L735.174 130.385H737.862L813.584 130.409H816.26L891.994 130.434H894.657L970.416 130.459H973.08L1048.83 130.484H1051.51L1127.24 130.509H1129.95L1205.65 130.534H1208.4L1284.06 130.559L1286.86 130.571L1362.47 130.584L1365.33 130.596L1440.88 130.621H1443.8L1519.3 130.646H1522.3L1597.71 130.671H1600.79L1676.12 130.696H1679.3L1754.54 130.721H1757.81H1764V129.339H1754.38H1751.11L1676.17 129.314H1673.01L1597.97 129.289H1594.9L1519.78 129.264H1516.78L1441.61 129.239H1438.69L1363.44 129.202H1360.59L1285.29 129.177H1282.49L1207.14 129.152H1204.39L1128.99 129.127H1126.29L1050.87 129.103H1048.18L972.756 129.078H970.08L894.645 129.053H891.981L816.546 129.028H813.883L738.46 129.003H735.784L660.386 128.978L657.673 128.966L582.324 128.953L579.574 128.941L504.275 128.916H501.475L426.226 128.891H423.376L348.19 128.866H345.277L270.166 128.841H267.179L192.154 128.816H189.08L114.142 128.791H110.981L36.1432 128.767H32.8824L0 128.754V130.136H29.4846H32.7579Z" fill="#FFB901"/>
<path d="M76.8542 145.469L155.463 145.494H158.612L237.321 145.519L240.382 145.532L319.166 145.556H322.153L401.023 145.581H403.936L482.881 145.606H485.743L564.738 145.644H567.551L646.596 145.668H649.359L728.453 145.693H731.191L810.311 145.718H813.036L892.168 145.756H894.894L974.038 145.78H976.751L1055.88 145.805H1058.63L1137.75 145.83L1140.52 145.843L1219.61 145.868H1222.41L1301.47 145.892H1304.32L1383.33 145.917H1386.25L1465.18 145.955H1468.17L1547.05 145.98H1550.11L1628.92 146.004H1632.06L1710.78 146.029H1714.02L1764 146.054V144.611L1710.77 144.598H1707.53L1629.13 144.573H1625.99L1547.5 144.536H1544.45L1465.89 144.511H1462.91L1384.28 144.486H1381.37L1302.69 144.461H1299.84L1221.1 144.424H1218.3L1139.52 144.399H1136.77L1057.96 144.374H1055.22L976.403 144.337H973.689L894.869 144.312H892.156L813.335 144.287H810.622L731.826 144.262H729.088L650.305 144.237H647.554L568.82 144.2H566.02L487.336 144.175H484.486L405.852 144.15H402.952L324.393 144.125H321.418L242.934 144.088H239.885L161.487 144.063H158.351L80.0652 144.038H76.8293L0 144.013V145.444L73.6182 145.469H76.8542Z" fill="#FFB901"/>
<path d="M39.4912 162.184L121.809 162.209H125.008L207.413 162.234H210.537L293.029 162.272H296.078L378.645 162.296H381.62L464.261 162.334H467.174L549.878 162.359H552.74L635.494 162.384H638.319L721.122 162.421H723.91L806.739 162.446H809.514L892.367 162.483H895.13L977.983 162.508H980.759L1063.6 162.533L1066.4 162.545L1149.23 162.57H1152.05L1234.86 162.595L1237.72 162.608L1320.47 162.633H1323.4L1406.1 162.657H1409.08L1491.73 162.695H1494.78L1577.36 162.72H1580.48L1662.99 162.745H1666.2L1748.63 162.782H1751.93H1764V161.288H1748.54L1745.24 161.276L1663.15 161.251H1659.94L1577.77 161.226L1574.65 161.214L1492.39 161.189H1489.35L1407.03 161.164H1404.06L1321.68 161.127H1318.78L1236.35 161.102H1233.49L1151.02 161.077H1148.2L1065.7 161.039H1062.91L980.41 161.015H977.635L895.118 160.977H892.342L809.838 160.952H807.062L724.57 160.927L721.782 160.915L639.315 160.89H636.489L554.072 160.865H551.209L468.842 160.828H465.929L383.624 160.803H380.649L298.406 160.778H295.369L213.213 160.741H210.101L128.02 160.716H124.821L42.8392 160.678H39.541L0 160.666V162.16L36.193 162.184H39.4912Z" fill="#FFB901"/>
<path d="M88.1676 180.53L174.63 180.567H177.816L264.366 180.592H267.477L354.102 180.629H357.139L443.837 180.667H446.825L533.586 180.692H536.511L623.322 180.729H626.209L713.07 180.754H715.932L802.818 180.791H805.668L892.566 180.829H895.404L982.315 180.853H985.165L1072.06 180.891H1074.93L1161.82 180.916H1164.71L1251.57 180.953H1254.51L1341.32 180.978H1344.31L1431.08 181.015H1434.13L1520.84 181.053H1523.95L1610.6 181.077H1613.79L1700.36 181.115H1703.65L1764 181.14V179.571L1700.45 179.547H1697.16L1610.95 179.509H1607.76L1521.46 179.484H1518.35L1431.99 179.447H1428.95L1342.53 179.422L1339.54 179.41L1253.07 179.385H1250.14L1163.63 179.347H1160.74L1074.2 179.323H1071.34L984.791 179.285H981.954L895.379 179.26H892.554L805.992 179.223H803.154L716.617 179.198L713.767 179.186L627.255 179.161H624.367L537.905 179.123H534.98L448.555 179.099H445.58L359.229 179.061H356.193L269.917 179.036H266.805L180.617 178.999H177.43L91.3164 178.962H88.0431L2.04115 178.937H0V180.505L84.8943 180.53H88.1676Z" fill="#FFB901"/>
<path d="M47.606 200.705L138.524 200.742H141.798L232.803 200.779H235.989L327.081 200.804L330.193 200.817L421.36 200.841H424.409L515.639 200.879H518.638L609.93 200.916H612.892L704.221 200.954H707.145L798.512 200.991H801.412L892.803 201.016H895.703L987.094 201.053H990.006L1081.38 201.09H1084.31L1175.69 201.115L1178.64 201.128L1269.98 201.165H1272.98L1364.28 201.19H1367.33L1458.59 201.227H1461.7L1552.89 201.265H1556.08L1647.19 201.302H1650.47L1741.51 201.327H1744.87L1764 201.339V199.696L1741.52 199.684H1738.16L1647.49 199.659L1644.22 199.647L1553.46 199.622H1550.28L1459.46 199.584H1456.35L1365.47 199.547H1362.42L1271.49 199.51H1268.49L1177.51 199.485H1174.56L1083.55 199.448H1080.63L989.608 199.41H986.708L895.678 199.373H892.778L801.76 199.348L798.86 199.336L707.867 199.311H704.943L613.975 199.273H611.025L520.094 199.236H517.107L426.239 199.211L423.19 199.199L332.383 199.174H329.272L238.553 199.136H235.367L144.722 199.099H141.461L50.9167 199.062H47.5562L0 199.049V200.692L44.2456 200.705H47.606Z" fill="#FFB901"/>
<path d="M98.56 223.07L101.92 223.083L197.867 223.107H201.14L297.161 223.145H300.372L396.48 223.182H399.604L495.787 223.219H498.861L595.094 223.257H598.131L694.413 223.294H697.425L793.732 223.331H796.72L893.052 223.369H896.039L992.371 223.406H995.37L1091.69 223.443H1094.7L1191.02 223.481H1194.06L1290.35 223.518H1293.44L1389.69 223.568H1392.82L1489.03 223.605H1492.23L1588.36 223.643H1591.63L1687.71 223.68H1691.07L1764 223.705V221.975L1687.92 221.938H1684.57L1588.88 221.9H1585.61L1489.86 221.863H1486.66L1390.86 221.838L1387.72 221.825L1291.86 221.801L1288.79 221.788L1192.86 221.763L1189.84 221.751L1093.91 221.713H1090.89L994.947 221.676H991.96L896.014 221.651H893.027L797.08 221.614L794.093 221.601L698.172 221.564H695.172L599.276 221.539L596.239 221.527L500.392 221.489H497.318L401.533 221.452H398.397L302.675 221.427L299.489 221.415L203.841 221.39L200.568 221.377L105.007 221.34H101.659L6.19812 221.303H2.75057H0V223.033L2.71323 223.045L98.56 223.07Z" fill="#FFB901"/>
<path d="M57.5504 247.925L158.998 247.962H162.358L263.881 247.999H267.179L368.788 248.049H372.012L473.683 248.087H476.857L578.591 248.124H581.715L683.498 248.174H686.597L788.418 248.211H791.492L893.338 248.248H896.4L998.258 248.286L1001.33 248.298L1103.18 248.336H1106.26L1208.1 248.373H1211.22L1313.03 248.41H1316.2L1417.96 248.448L1421.19 248.46L1522.91 248.497H1526.19L1627.84 248.535H1631.2L1732.78 248.572H1736.24L1764 248.584V246.755L1732.92 246.742H1729.47L1628.3 246.705H1624.93L1523.69 246.668H1520.41L1419.11 246.618H1415.88L1314.52 246.581H1311.36L1209.96 246.543H1206.84L1105.42 246.506H1102.33L1000.88 246.456H997.822L896.375 246.419H893.313L791.878 246.382H788.804L687.394 246.344H684.307L582.922 246.307L579.81 246.294L478.475 246.257H475.313L374.04 246.22H370.817L269.618 246.182L266.332 246.17L165.208 246.133H161.848L60.8237 246.095H57.3761L0 246.07V247.9L54.1028 247.925H57.5504Z" fill="#FFB901"/>
<path d="M7.89078 275.742L115.474 275.792H118.947L226.63 275.829H230.015L337.785 275.879H341.108L448.953 275.916H452.214L560.121 275.966H563.332L671.288 276.003L674.475 276.016L782.469 276.053H785.63L893.649 276.103H896.81L1004.84 276.14L1008 276.152L1116.02 276.19H1119.21L1227.21 276.227H1230.44L1338.42 276.277H1341.68L1449.61 276.314H1452.94L1560.83 276.364H1564.22L1672.04 276.414H1675.51L1764 276.451V274.497L1672.41 274.46H1668.95L1561.56 274.423H1558.18L1450.72 274.373H1447.41L1339.9 274.335H1336.64L1229.09 274.286H1225.88L1118.31 274.248L1115.13 274.236L1007.54 274.198H1004.38L896.785 274.161L893.624 274.149L786.041 274.111H782.88L675.321 274.074L672.147 274.062L564.614 274.024H561.403L453.944 273.974H450.683L343.274 273.937H339.951L232.616 273.887H229.231L121.971 273.85H118.511L11.3508 273.8H7.80365H0V275.742H4.33121H7.89078Z" fill="#FFB901"/>
<path d="M70.0213 307.143L184.637 307.193H188.146L302.849 307.243H306.284L421.074 307.292H424.447L539.298 307.342H542.622L657.523 307.392H660.821L775.76 307.429H779.034L893.998 307.479L897.271 307.491L1012.26 307.529H1015.53L1130.5 307.579H1133.8L1248.76 307.628H1252.09L1367.02 307.678H1370.41L1485.3 307.728H1488.73L1603.57 307.778H1607.08L1721.84 307.827H1725.44L1764 307.84V305.761L1722.13 305.749H1718.55L1604.24 305.699H1600.73L1486.37 305.649H1482.93L1368.5 305.6H1365.13L1250.66 305.55H1247.34L1132.84 305.5H1129.54L1015.04 305.45H1011.76L897.246 305.413L893.985 305.401L779.469 305.363L776.208 305.351L661.73 305.313H658.444L543.991 305.264H540.68L426.289 305.214H422.916L308.599 305.164H305.164L190.922 305.114H187.425L73.2573 305.064H69.6853L0 305.04V307.118L66.4369 307.143H70.0213Z" fill="#FFB901"/>
<path d="M14.4623 342.751L136.956 342.801L140.59 342.813L263.184 342.863H266.743L389.411 342.913H392.908L515.651 342.963H519.099L641.891 343.025H645.314L768.143 343.075H771.541L894.408 343.124H897.806L1020.67 343.187H1024.07L1146.95 343.236H1150.37L1273.23 343.286L1276.69 343.299L1399.52 343.348H1403.03L1525.81 343.398L1529.38 343.411L1652.11 343.46H1655.76L1764 343.51V341.258L1652.69 341.22H1649.06L1526.83 341.17L1523.27 341.158L1400.97 341.108H1397.48L1275.14 341.058H1271.7L1149.33 341.009L1145.92 340.996L1023.54 340.946H1020.15L897.769 340.897H894.383L772.014 340.847L768.629 340.834L646.284 340.785H642.874L520.58 340.735H517.132L394.887 340.685L391.402 340.673L269.22 340.623H265.673L143.577 340.573H139.943L17.9472 340.523L14.2382 340.511H0V342.751H10.7409H14.4623Z" fill="#FFB901"/>
<path d="M86.114 383.599L217.731 383.661H221.44L353.143 383.724H356.79L488.556 383.786H492.153L623.994 383.848H627.553L759.419 383.898L762.966 383.91L894.869 383.96H898.404L1030.33 384.022H1033.87L1165.78 384.084H1169.35L1301.26 384.147H1304.85L1436.74 384.209H1440.39L1572.22 384.259L1575.94 384.271L1707.73 384.321H1711.51L1764 384.346V381.931L1708.2 381.906H1704.42L1573.18 381.844H1569.47L1438.17 381.782H1434.53L1303.19 381.72H1299.59L1168.22 381.658H1164.66L1033.28 381.608L1029.76 381.595L898.366 381.545L894.844 381.533L763.476 381.483L759.942 381.471L628.599 381.421H625.052L493.758 381.359H490.162L358.931 381.297H355.297L224.128 381.234H220.431L89.35 381.172H85.5664L0 381.147V383.562L82.3304 383.599H86.114Z" fill="#FFB901"/>
<path d="M23.0874 430.794L165.146 430.869H169.029L311.188 430.931H314.996L457.217 431.006H460.976L603.271 431.068H606.992L749.338 431.143H753.034L895.404 431.205H899.1L1041.5 431.28H1045.19L1187.59 431.342H1191.31L1333.69 431.417H1337.45L1479.81 431.479H1483.63L1625.94 431.541L1629.82 431.553L1764 431.616V428.965L1626.79 428.902L1622.91 428.89L1481.2 428.828H1477.39L1335.62 428.766H1331.87L1190.08 428.691H1186.37L1044.56 428.629H1040.87L899.063 428.554H895.379L753.594 428.492H749.898L608.15 428.43L604.429 428.417L462.731 428.355H458.972L317.336 428.28H313.54L171.967 428.218H168.108L26.622 428.143H22.6766H0V430.782L19.142 430.794H23.0874Z" fill="#FFB901"/>
<path d="M107.695 486.116L262.076 486.191H266.083L420.539 486.266H424.484L579.026 486.353H582.934L737.526 486.428H741.409L896.039 486.502H899.922L1054.56 486.577H1058.45L1213.1 486.652L1217.01 486.664L1371.65 486.739H1375.61L1530.23 486.813H1534.23L1688.8 486.888H1692.88L1764 486.925V484.001L1689.53 483.963H1685.46L1531.56 483.889H1527.55L1373.58 483.814H1369.63L1215.65 483.727H1211.74L1057.75 483.652H1053.87L899.872 483.578H896.001L742.019 483.503H738.149L584.204 483.428L580.308 483.416L426.426 483.341H422.48L268.672 483.266H264.677L110.944 483.192H106.874L0 483.129V486.067L103.613 486.116H107.695Z" fill="#FFB901"/>
<path d="M34.936 551.645L203.816 551.732H208.06L377.027 551.832H381.209L550.263 551.919H554.396L723.512 552.006H727.619L896.773 552.093H900.88L1070.07 552.193H1074.18L1243.36 552.28H1247.5L1416.68 552.367H1420.86L1590.02 552.454H1594.26L1763.38 552.541H1764V549.268H1763.95H1759.64L1591.26 549.181H1587.03L1418.6 549.094H1414.43L1245.98 549.006L1241.85 548.994L1073.39 548.907H1069.29L900.83 548.82H896.736L728.304 548.733H724.209L555.827 548.646H551.695L383.362 548.558L379.205 548.546L210.96 548.471L206.728 548.459L38.5702 548.372H34.2639L0 548.359V551.633L30.6172 551.645H34.936Z" fill="#FFB901"/>
<path d="M138.126 630.727L324.592 630.839H329.048L515.601 630.939H520.007L706.623 631.051H711.004L897.669 631.15H902.05L1088.75 631.25L1093.13 631.262L1279.84 631.362H1284.25L1470.96 631.474H1475.41L1662.1 631.573H1666.62L1764 631.635V627.914L1663.22 627.864L1658.71 627.852L1472.85 627.752H1468.41L1282.52 627.653H1278.12L1092.24 627.541H1087.87L902 627.441H897.632L711.788 627.329H707.419L521.625 627.23H517.232L331.5 627.13L327.057 627.118L141.412 627.018H136.919L0 626.943V630.652L133.62 630.727H138.126Z" fill="#FFB901"/>
<path d="M52.1986 727.806L260.147 727.93H264.938L472.999 728.055H477.74L685.875 728.179L690.58 728.192L898.777 728.304H903.481L1111.72 728.428H1116.43L1324.67 728.565H1329.42L1537.67 728.69H1542.46L1750.68 728.814H1755.55L1764 728.827V724.52L1751.62 724.508H1746.76L1539.49 724.383H1534.71L1327.42 724.259L1322.68 724.246L1115.4 724.134H1110.7L903.419 723.997H898.727L691.488 723.873H686.784L479.62 723.749H474.89L267.776 723.624H263.009L56.0071 723.5H51.1656L0 723.462V727.781L47.3447 727.806H52.1986Z" fill="#FFB901"/>
<path d="M184.276 850.101L419.394 850.25L424.559 850.262L659.751 850.412H664.891L900.158 850.561H905.286L1140.62 850.723H1145.74L1381.09 850.872L1386.25 850.885L1621.6 851.034H1626.83L1764 851.121V846.031L1623.31 845.931H1618.11L1383.89 845.782H1378.73L1144.52 845.62H1139.41L905.211 845.471H900.109L665.962 845.309H660.846L426.774 845.16H421.634L187.636 845.01L182.446 844.998L0 844.886V849.976L179.061 850.101H184.276Z" fill="#FFB901"/>
<path d="M79.6919 1008.53L349.882 1008.73H355.595L625.885 1008.92H631.561L901.963 1009.12H907.626L1178.08 1009.31H1183.77L1454.26 1009.51H1459.97L1730.48 1009.71H1736.26L1764 1009.73V1003.5L1731.95 1003.47H1726.2L1457.07 1003.29H1451.38L1182.27 1003.09H1176.61L907.539 1002.89L901.888 1002.88L632.88 1002.7L627.217 1002.69L358.296 1002.5L352.608 1002.49L83.7991 1002.3H78.049L0 1002.24V1008.46L73.9169 1008.53H79.6919Z" fill="#FFB901"/>
</mask>
<g mask="url(#mask0_5_4230)">
<rect x="2.48828" y="21.1581" width="1761.11" height="1056.67" fill="url(#paint0_radial_5_4230)"/>
</g>
<defs>
<radialGradient id="paint0_radial_5_4230" cx="0" cy="0" r="1" gradientUnits="userSpaceOnUse" gradientTransform="translate(883.044 549.492) rotate(90) scale(528.334 880.556)">
<stop stop-color="#8C6600"/>
<stop offset="0.0001" stop-color="#615432"/>
<stop offset="1" stop-color="#2E2715" stop-opacity="0"/>
</radialGradient>
</defs>
</svg>
