<svg version="1.2" xmlns="http://www.w3.org/2000/svg" viewBox="0 0 970 144" width="970" height="144">
	<title>roadmap-text</title>
	<style>
		.s0 { opacity: .2;fill: #78b0ef } 
	</style>
	<path class="s0" d="m0.8 143h-1v1h1zm0-142v-1h-1v1zm80.8 4l-0.4 0.9zm14.4 10.8l-0.8 0.7zm9.4 15.2l-0.9 0.3v0.1zm0.2 34.6l-0.9-0.4zm-1-0.3q-2.9 8-8.6 14l1.5 1.4q5.9-6.4 9-14.7zm-21.5 24.3l-0.4-0.9-1 0.4 0.6 1zm32.4 53.4v1h1.8l-1-1.5zm-30.4 0l-0.8 0.5 0.3 0.5h0.5zm-29.2-47.6l0.9-0.5-0.3-0.5h-0.6zm-27.6 0v-1h-1v1zm0 47.6v1h1v-1zm0-71.8h-1v1h1zm43.8-3l0.6 0.8h0.1zm0.6 0.8q4.2-3.4 6.7-8.8l-1.8-0.8q-2.4 5-6.2 8zm5.4-32.6l-0.9 0.5zm-7.2-8.2l-0.5 0.8zm-42.6-3v-1h-1v1zm-26.6 117.8v-142h-2v142zm-1-141h62.8v-2h-62.8zm62.8 0q9.6 0 17.5 3.9l0.9-1.8q-8.4-4.1-18.4-4.1zm17.6 3.9q8.2 3.9 14 10.6l1.5-1.3q-6.1-7-14.7-11.1zm14.1 10.6q6.1 6.7 9.2 14.9l1.9-0.7q-3.3-8.6-9.6-15.6zm9.2 15q3.3 8.2 3.3 16.8h2q0-9-3.5-17.6zm3.4 16.8q0 8.8-3.2 17.1l1.9 0.7q3.3-8.6 3.3-17.8zm-11.8 31.1q-5.6 6.1-13.2 9.4l0.8 1.8q8-3.4 13.9-9.8zm0.7 0.7l-0.7-0.7zm-14.5 10.1l32.4 53.4 1.8-1-32.4-53.4zm33.2 51.9h-30.4v2h30.4zm-29.5 0.4l-29.2-47.6-1.7 1.1 29.2 47.6zm-30.1-48.1h-27.6v2h27.6zm-28.6 1v47.6h2v-47.6zm1 46.6h-27.6v2h27.6zm0-69.8h34.6v-2h-34.6zm34.6 0q5.5 0 9.8-3.2l-1.2-1.6q-3.7 2.8-8.6 2.8zm16.5-12q2.5-5.4 2.5-12h-2q0 6.2-2.3 11.2zm-0.9-0.4l0.9 0.4zm3.4-11.6q0-7-2.9-12.3l-1.8 1q2.7 4.7 2.7 11.3zm-2.9-12.3q-2.9-5.4-7.5-8.5l-1.2 1.6q4.2 2.9 6.9 7.9zm-7.5-8.6q-4.4-3.1-9.8-3.2v2q4.7 0 8.7 2.9zm-9.8-3.2h-33.4v2h33.4zm-34.4 1v46h2v-46zm137.8 112.8l-0.4 0.9zm-21.8-16.2l-0.8 0.6zm-14-23.2l-0.9 0.4zm0.2-53.6l-0.9-0.4zm15.3-22.3q9.3-10 21.7-15.8l-0.8-1.8q-12.8 5.9-22.4 16.3zm21.3-16.7l0.4 0.9zm56 0.2l-0.4 0.9zm-0.4 0.9q12.6 6.1 21.4 16.3l1.6-1.3q-9.2-10.5-22.2-16.8zm21.5 16.3q8.9 10.3 13.8 23l1.9-0.8q-5.1-12.9-14.2-23.5zm14.6 76l0.9 0.4v-0.1zm-0.9-0.3q-5.1 12.6-14.4 22.7l1.4 1.3q9.6-10.3 14.8-23.3zm-35.6 39.2l-0.5-0.9zm-69.8-66.2q0 9.3 2.9 18.1l1.9-0.6q-2.8-8.5-2.8-17.5zm11.8 33.2l-0.8 0.6h0.1zm13 10.6l-0.5 0.9zm35.4-0.2l0.5 0.9zm13-11l0.8 0.6zm7.8-15.4l-0.9-0.3zm-0.2-34.8l-1 0.3zm-8.2-15.2l-0.8 0.6v0.1zm-13-10.6l-0.4 0.9zm-35.2 0.2l0.5 0.9zm-0.5-0.9q-7.8 4.1-13.1 11l1.6 1.3q5-6.7 12.4-10.6zm-20.3 26.9l-0.9-0.3h-0.1zm38.6 88.2q-15.4 0-27.9-5.9l-0.9 1.8q13 6.1 28.8 6.1zm-27.9-5.9q-12.4-5.9-21.5-15.9l-1.5 1.3q9.3 10.3 22.1 16.4zm-21.5-15.9q-8.8-10.3-13.8-22.9l-1.8 0.7q5 13 14.1 23.5zm-13.8-22.9q-4.9-12.8-4.9-26.3h-2q0 13.8 5 27zm-4.9-26.2q0-14 5.1-26.7l-1.8-0.7q-5.3 13-5.3 27.4zm5.1-26.7q5.4-12.8 14.4-22.7l-1.4-1.3q-9.4 10.1-14.8 23.3zm13.7-23.4l-0.8-0.7zm22.4-15.1q12.6-5.9 27.6-5.9v-2q-15.4 0-28.4 6.1zm27.6-5.9q15.2 0 27.5 6.1l0.9-1.8q-12.8-6.3-28.4-6.3zm49.8 21.8l-0.8 0.7zm13.1 23.5q4.9 12.7 4.9 26.1h2q0-13.8-5.1-26.8zm1-0.4l0.9-0.3zm4 26.4q0 13.8-5.1 26.6l1.8 0.7q5.3-13.1 5.3-27.3zm-18.8 50l-0.7-0.7zm-0.8-0.7q-9 9.9-21.6 15.6l0.8 1.8q13-5.9 22.3-16zm-21.7 15.5q-12.4 5.7-27.2 5.7v2q15.2 0 28.1-5.8zm-66.6-47.2q2.9 8.7 8.2 15.7l1.6-1.2q-5.1-6.7-7.9-15.1zm1-0.4l-1 0.4zm7.3 16q5.5 6.7 13.3 10.8l0.9-1.7q-7.4-3.9-12.7-10.4zm13.3 10.9q8.1 3.9 18.1 3.9v-2q-9.6 0-17.2-3.7zm18.1 3.9q10.2 0 18.2-4.1l-0.9-1.8q-7.6 3.9-17.3 3.9zm18.2-4.1q8-4.3 13.4-11.3l-1.6-1.2q-5.1 6.6-12.7 10.7zm13.3-11.3q5.3-7.1 8-15.7l-1.9-0.6q-2.6 8.3-7.7 15.1zm8-15.7q2.8-8.7 2.8-17.5h-2q0 8.5-2.7 16.9zm2.8-17.5q0-9.4-3.1-17.9l-1.8 0.7q2.9 8.2 2.9 17.2zm-3-17.9q-2.9-8.8-8.4-15.5l-1.6 1.2q5.3 6.5 8.1 14.9zm-8.4-15.5q-5.4-7-13.4-10.9l-0.8 1.8q7.6 3.7 12.6 10.3zm-13.3-10.8q-7.9-4.2-17.7-4.1v2q9.4 0 16.7 3.8zm-17.6-4.1q-10.4 0-18.5 4.3l1 1.8q7.5-4.1 17.5-4.1zm-31.6 15.4q-5.3 7-8.2 15.5l1.9 0.6q2.8-8.2 7.9-14.9zm0.8 0.6l-0.8-0.6zm-9 14.9q-2.6 8.6-2.6 17.5h2q0-8.6 2.5-16.9zm163.3-53.5v-1h-0.7l-0.2 0.7zm28 0l0.9-0.4-0.3-0.6h-0.6zm52.2 142v1h1.4l-0.5-1.4zm-28.4 0l-0.9 0.4 0.2 0.6h0.7zm-24.7-141.6l52.2 142 1.8-0.7-52.2-142zm-78.5 142l52.4-142-1.9-0.7-52.4 142zm27.5-0.4v1h0.7l0.2-0.6zm-28.4 0l-0.9-0.4-0.5 1.4h1.4zm86-54.8v1h1.4l-0.4-1.3zm-19.6-58.6l0.9-0.3-0.9-2.8-1 2.7zm-20.4 58.6l-0.9-0.3-0.5 1.3h1.4zm6.4-86.2h28v-2h-28zm38.6 105.6l1-0.3-0.3-0.7h-0.7zm41.6 34.4h-28.4v2h28.4zm-27.4 0.7l-13.2-35.4-1.9 0.7 13.2 35.4zm-14.1-36.1h-49.6v2h49.6zm-50.6 0.7l-13 35.4 1.9 0.7 13-35.4zm-12.1 34.7h-28.4v2h28.4zm13-34.4v-1h-0.7l-0.2 0.7zm45.5-19.7l-19.6-58.6-1.9 0.6 19.6 58.6zm-21.4-58.6l-20.4 58.6 1.8 0.7 20.4-58.6zm-19.4 59.9h40v-2h-40zm102.2 53.8h-1v1h1zm0-142v-1h-1v1zm90.4 9.6l-0.6 0.8zm23.4 25.6l-0.9 0.5zm6.8 35.6q0 21.4-8.4 37.1l1.7 0.9q8.8-16.2 8.7-38zm-32 62.4l-0.4-0.9zm0.2-86.6l-0.9 0.4zm-14.4-16.4l-0.6 0.9zm-46.8-6v-1h-1v1zm0 93.6h-1v1h1zm47-6l0.6 0.8zm14.2-16.8l-0.9-0.4zm-87.8 47v-142h-2v142zm-1-141h51.6v-2h-51.6zm51.6 0c15.3 0 28 3.2 38.2 9.5l1.1-1.7c-10.6-6.6-23.7-9.8-39.3-9.8zm38.3 9.5q15.3 9.2 23 25.1l1.8-0.8q-8-16.5-23.8-26zm23 25.1q7.7 15.8 7.7 35.2h2q0-19.8-7.9-36zm-0.8 72.2q-8.4 15.8-24 24.4l1 1.8q16-8.9 24.8-25.2zm0.9 0.5l0.8 0.4zm-24.9 24q-15.3 8.6-36.5 8.6v2q21.7 0.1 37.5-8.9zm-36.5 8.7h-51.6v2h51.6zm43.2-70.2q0-14-5.1-24.7l-1.8 0.9q4.9 10.2 4.9 23.8zm-5.1-24.6q-5.1-10.9-14.8-16.9l-1 1.7q9.1 5.7 14 16zm-14.7-16.8c-6.5-4.1-14.3-6.2-23.4-6.2v2c8.8 0 16.2 2 22.3 5.9zm-23.4-6.2h-24v2h24zm-25 1v93.6h2v-93.6zm1 94.6h24v-2h-24zm24 0c9.3 0 17.1-2 23.6-6.1l-1.1-1.7c-6.1 3.9-13.5 5.8-22.5 5.8zm23.6-6.1q9.6-6.4 14.5-17.3l-1.8-0.8q-4.7 10.4-13.8 16.4zm14.5-17.2q5.1-11.1 5.1-24.6h-2q0 13.2-4.9 23.7zm169.3 46.6h-1v1h1zm0-93.2h1l-1.9-0.5zm-36.4 69.4v1h0.6l0.3-0.5zm-15.4 0l-0.9 0.5 0.3 0.5h0.6zm-36.4-69.4l0.9-0.5-1.9 0.5zm0 93.2v1h1v-1zm-27.6 0h-1v1h1zm0-142v-1h-1v1zm29.6 0l0.9-0.5-0.3-0.5h-0.6zm42 80.8l-0.9 0.5 0.9 1.7 0.9-1.7zm42.4-80.8v-1h-0.6l-0.3 0.5zm29.4 0h1v-1h-1zm0 142v1h1v-1zm-26.6 0v-93.2h-2v93.2zm-1.9-93.7l-36.4 69.4 1.8 1 36.4-69.4zm-35.5 68.8h-15.4v2h15.4zm-14.6 0.6l-36.4-69.4-1.7 0.9 36.4 69.4zm-38.3-68.9v93.2h2v-93.2zm1 92.2h-27.6v2h27.6zm-26.6 1v-142h-2v142zm-1-141h29.6v-2h-29.6zm28.7-0.6l42 80.8 1.8-0.9-42-80.8zm43.7 80.8l42.4-80.8-1.7-0.9-42.4 80.8zm41.5-80.3h29.4v-2h-29.4zm28.4-1v142h2v-142zm1 141h-27.6v2h27.6zm68.2-141v-1h-0.7l-0.2 0.7zm28 0l0.9-0.4-0.2-0.6h-0.7zm52.2 142v1h1.4l-0.5-1.4zm-28.4 0l-0.9 0.4 0.2 0.6h0.7zm-24.7-141.6l52.2 142 1.9-0.7-52.2-142zm-78.6 142l52.4-142-1.8-0.7-52.4 142zm27.4-0.4v1h0.7l0.3-0.6zm-28.4 0l-1-0.4-0.5 1.4h1.5zm86-54.8v1h1.4l-0.5-1.3zm-19.6-58.6l1-0.3-1-2.8-0.9 2.7zm-20.4 58.6l-1-0.3-0.4 1.3h1.4zm6.4-86.2h28v-2h-28zm38.6 105.6l0.9-0.3-0.2-0.7h-0.7zm41.6 34.4h-28.4v2h28.4zm-27.5 0.7l-13.2-35.4-1.9 0.7 13.2 35.4zm-14.1-36.1h-49.6v2h49.6zm-50.5 0.7l-13 35.4 1.8 0.7 13-35.4zm-12 34.7h-28.4v2h28.4zm13-34.4v-1h-0.7l-0.3 0.7zm45.6-19.7l-19.6-58.6-1.9 0.6 19.6 58.6zm-21.5-58.6l-20.4 58.6 1.9 0.6 20.4-58.6zm-19.5 60h40v-2h-40zm102.2 53.8h-1v1h1zm0-142v-1h-1v1zm60.2 1q9.6 0 17.6 3.9l0.8-1.8q-8.4-4.1-18.4-4.1zm32.2 13.8l-0.7 0.6v0.1zm-0.8 0.6q6.1 6.7 9.4 14.9l1.9-0.7q-3.5-8.6-9.8-15.5zm12.7 31.7q0 11.8-5.4 22.3l1.7 1q5.7-11.1 5.7-23.3zm-5.4 22.3q-5.5 10.6-15.1 17.3l1.1 1.6q10-6.9 15.7-17.9zm-71.3 24.8v-1h-1v1zm0 47.6v1h1v-1zm0-71.8h-1v1h1zm32 1q5.3 0 9.6-3l-1.2-1.6q-3.7 2.6-8.4 2.6zm15.4-11.8l0.9 0.4zm-0.4-24.8l-0.9 0.5h0.1zm-7-7.8l-0.6 0.9zm-40-2.6v-1h-1v1zm-26.6 117.8v-142h-2v142zm-1-141h60.2v-2h-60.2zm77.8 3.9q8 3.9 13.9 10.5l1.5-1.3q-6.1-6.9-14.5-11zm0.4-0.9l0.5-0.9zm22.8 26.3q3.4 8.3 3.4 16.9h2q0-9-3.5-17.6zm0.9-0.4l0.9-0.4zm-2.2 40l0.9 0.5zm-15.9 16.8q-9.6 6.6-22.7 6.6v2q13.7 0 23.8-7zm0.6 0.8l0.5 0.9zm-23.2 5.8h-33.6v2h33.6zm-34.6 1v47.6h2v-47.6zm1 46.6h-27.6v2h27.6zm0-69.8h32v-2h-32zm41.6-3q4.3-3 6.7-8.4l-1.8-0.9q-2.3 5-6 7.6zm-0.6-0.8l0.6 0.8zm7.3-7.5q2.5-5.7 2.5-12.7h-2q0 6.7-2.4 11.8zm2.5-12.6c0-5-0.9-9.4-2.9-13l-1.7 0.9c1.7 3.3 2.6 7.3 2.6 12.1zm-2.9-13q-2.7-5.4-7.4-8.2l-1 1.7q4.1 2.4 6.6 7.4zm-7.3-8.2q-4.5-2.8-9.8-2.8v2q4.8 0 8.7 2.5zm-9.7-2.8h-30.8v2h30.8zm-31.8 1v46h2v-46z"/>
</svg>