<svg version="1.2" xmlns="http://www.w3.org/2000/svg" viewBox="0 0 400 403" width="400" height="403">
	<title>roadmap-item</title>
	<defs>
		<clipPath clipPathUnits="userSpaceOnUse" id="cp1">
			<path d="m0 0h400v403h-400z"/>
		</clipPath>
		<filter x="-50%" y="-50%" width="200%" height="200%" id="f2"> <feGaussianBlur stdDeviation="75"/> </filter>
		<filter x="-50%" y="-50%" width="200%" height="200%" id="f3"> <feGaussianBlur stdDeviation="25"/> </filter>
		<linearGradient id="g1" x2="1" gradientUnits="userSpaceOnUse" gradientTransform="matrix(0,403,-399.993,0,200,0)">
			<stop offset="0" stop-color="#ffffff" stop-opacity="0"/>
			<stop offset="1" stop-color="#ffffff" stop-opacity="1"/>
		</linearGradient>
	</defs>
	<style>
		.s0 { filter: url(#f2);fill: #ff9901 } 
		.s1 { filter: url(#f3);fill: #ffba04 } 
		.s2 { filter: url(#f3);fill: #ffffff } 
		.s3 { fill: none;stroke: url(#g1) } 
	</style>
	<filter id="f0">
		<feFlood flood-color="#78b0ef" flood-opacity="1" />
		<feBlend mode="normal" in2="SourceGraphic"/>
		<feComposite in2="SourceAlpha" operator="in" />
	</filter>
	<g id="Clip-Path" clip-path="url(#cp1)" filter="url(#f0)">
		<g>
			<g>
				<path class="s0" d="m174.6 389.5c-235 0-326.1-324.1-342.3-486.1l-21.4 20.1c-20 98.7-64.1 307.8-80.7 354.4-20.8 58.2-12 263.9-21.5 320-9.4 56.1 72.5 74.6 134.9 94.7 62.5 20.1 553.5 41.8 646.2 30.1 92.6-11.6 127.3-84.6 139.9-109.5 12.6-24.8 52.3-223.7 54.8-259.2 2.6-35.4 12-289.3 8.9-311.5-3.2-22.2-116-189.4-127.4-139.1-11.3 50.2-97.7 486.1-391.4 486.1z"/>
			</g>
			<g style="opacity: .8">
				<path class="s1" d="m-64.6 63.5c-7-108.3-27.5-166.1-36.9-181.5-5.9 3.6-20.5 18.3-31.9 48-14.3 37-7.9 233.1-12.3 301.7-4.5 68.6-3 223.4 9.8 247.1 12.8 23.6 142.7 28.5 234.7 46.1 92 17.6 170.2 1.2 238.6 0 68.4-1.2 178.1-12.1 188.5-31 10.3-18.8 13.3-169.3 6.4-251.3-6.9-81.9-16.3-179.1-16.8-179.1-0.4 0-10.9-85.4-16.2-128.1-8.2 10.1-25.2 32.2-27.5 39.5-3 9.1-6 45.5-8.9 53.4-3 7.9-4.4 35.2-11.3 52.8-6.9 17.6 1 44.3 0 55.3-1 10.9-7.9 46.1-9.9 62.5-1.9 16.4 0 46.1-4.4 51.6-4.4 5.5 0 54.6 0 74.1 0 15.5-4.6 46.1-6.9 59.5h-39.3c-5.5 0-22.2-16.4-32.5-16.4-10.3 0-30.5 16.4-35.4 16.4-4 0-19.1-11-26.1-16.4-5.3-5.9-18.2-19.8-28.1-28.6-12.3-10.9-23.1 11-28.5 11-4.3 0-18.2 11.7-24.6 17.6-11-2.7-33.7-9.9-36.4-17.6-3.5-9.8-11.8-7.9-18.7-11-6.9-3-38.9-4.8-48.7 11-7.9 12.6-34.8 17-47.3 17.6l-46.7-17.6c-21 10.9-65.6 21.1-76.3-25.5-13.2-58.3 2.5-125.7-6.4-261.1z"/>
			</g>
			<g>
				<path class="s2" d="m-63.2 156.5c-7.2-89.2-28-136.8-37.5-149.5-6 3-20.9 15.1-32.5 39.5-14.5 30.5-8 192-12.5 248.5-4.5 56.5-3 184 10 203.5 13 19.5 145 23.5 238.5 38 93.5 14.5 173 1 242.5 0 69.5-1 181-10 191.5-25.5 10.5-15.5 13.5-139.5 6.5-207-7-67.5-16.5-147.5-17-147.5-0.4 0-11.2-70.3-16.5-105.5-8.3 8.3-25.6 26.5-28 32.5-3 7.5-6 37.5-9 44-3 6.5-4.5 29-11.5 43.5-7 14.5 1 36.5 0 45.5-1 9-8 38-10 51.5-2 13.5 0 38-4.5 42.5-4.5 4.5 0 45 0 61 0 12.8-4.7 38-7 49h-40c-5.5 0-22.5-13.5-33-13.5-10.5 0-31 13.5-36 13.5-4 0-19.3-9-26.5-13.5-5.3-4.8-18.5-16.3-28.5-23.5-12.5-9-23.5 9-29 9-4.4 0-18.5 9.7-25 14.5-11.2-2.2-34.2-8.1-37-14.5-3.5-8-12-6.5-19-9-7-2.5-39.5-4-49.5 9-8 10.4-35.3 14-48 14.5l-47.5-14.5c-21.3 9-66.7 17.4-77.5-21-13.5-48 2.5-103.5-6.5-215z"/>
			</g>
		</g>
	</g>
	<path fill-rule="evenodd" class="s3" d="m0.5 0.5h399v402h-399z"/>
</svg>